<svg width="38" height="39" viewBox="0 0 38 39" fill="none" xmlns="http://www.w3.org/2000/svg">
<path d="M19.171 33.4286H3.8V7.42857H0V33.4286C0 34.4137 0.400356 35.3584 1.11299 36.055C1.82563 36.7515 2.79218 37.1429 3.8 37.1429H20.539C19.8402 36.0035 19.3756 34.7418 19.171 33.4286ZM30.4 0H20.9V9.28571L17.1 6.5L13.3 9.28571V0H11.4C10.3922 0 9.42563 0.391325 8.71299 1.08789C8.00036 1.78445 7.6 2.7292 7.6 3.71429V26C7.6 26.9851 8.00036 27.9298 8.71299 28.6264C9.42563 29.323 10.3922 29.7143 11.4 29.7143H19.171C19.4477 28.1127 20.0792 26.5897 21.0214 25.2518C21.9636 23.9139 23.1936 22.7935 24.6253 21.969C26.057 21.1446 27.6558 20.636 29.3098 20.479C30.9637 20.322 32.6327 20.5203 34.2 21.06V3.71429C34.2 2.7292 33.7996 1.78445 33.087 1.08789C32.3744 0.391325 31.4078 0 30.4 0ZM32.3 24.1429V29.7143H38V33.4286H32.3V39H28.5V33.4286H22.8V29.7143H28.5V24.1429H32.3Z" fill="#2C698D"/>
</svg>
