<svg width="29" height="26" viewBox="0 0 29 26" fill="none" xmlns="http://www.w3.org/2000/svg">
<path d="M12 24C12 24.3956 11.8827 24.7822 11.6629 25.1111C11.4432 25.44 11.1308 25.6964 10.7654 25.8478C10.3999 25.9991 9.99778 26.0387 9.60982 25.9616C9.22186 25.8844 8.86549 25.6939 8.58579 25.4142C8.30608 25.1345 8.1156 24.7781 8.03843 24.3902C7.96126 24.0022 8.00087 23.6001 8.15224 23.2346C8.30362 22.8692 8.55996 22.5568 8.88886 22.3371C9.21776 22.1173 9.60444 22 10 22C10.5304 22 11.0391 22.2107 11.4142 22.5858C11.7893 22.9609 12 23.4696 12 24ZM23 22C22.6044 22 22.2178 22.1173 21.8889 22.3371C21.56 22.5568 21.3036 22.8692 21.1522 23.2346C21.0009 23.6001 20.9613 24.0022 21.0384 24.3902C21.1156 24.7781 21.3061 25.1345 21.5858 25.4142C21.8655 25.6939 22.2219 25.8844 22.6098 25.9616C22.9978 26.0387 23.3999 25.9991 23.7654 25.8478C24.1308 25.6964 24.4432 25.44 24.6629 25.1111C24.8827 24.7822 25 24.3956 25 24C25 23.4696 24.7893 22.9609 24.4142 22.5858C24.0391 22.2107 23.5304 22 23 22ZM28.675 6.275L25.375 17.825C25.1938 18.4511 24.8144 19.0016 24.2938 19.3938C23.7731 19.7859 23.1393 19.9987 22.4875 20H10.5125C9.86069 19.9987 9.22689 19.7859 8.70625 19.3938C8.18561 19.0016 7.80621 18.4511 7.625 17.825L4.325 6.2875V6.2625L3.1 2H1C0.734784 2 0.48043 1.89464 0.292893 1.70711C0.105357 1.51957 0 1.26522 0 1C0 0.734784 0.105357 0.48043 0.292893 0.292893C0.48043 0.105357 0.734784 0 1 0H3.1C3.53438 0.0015746 3.95658 0.143648 4.30354 0.404995C4.6505 0.666343 4.90359 1.03293 5.025 1.45L6.0375 5H27.7125C27.8674 4.99984 28.0202 5.03566 28.1589 5.10464C28.2976 5.17362 28.4184 5.27387 28.5117 5.3975C28.605 5.52112 28.6683 5.66474 28.6967 5.81702C28.725 5.9693 28.7176 6.12608 28.675 6.275ZM26.3875 7H6.6125L9.55 17.275C9.6098 17.4841 9.73611 17.6679 9.90979 17.7988C10.0835 17.9296 10.2951 18.0002 10.5125 18H22.4875C22.7049 18.0002 22.9165 17.9296 23.0902 17.7988C23.2639 17.6679 23.3902 17.4841 23.45 17.275L26.3875 7Z" fill="black"/>
</svg>
