<svg width="44" height="41" viewBox="0 0 44 41" fill="none" xmlns="http://www.w3.org/2000/svg">
<path d="M11 26.4435H24.255C24.8783 26.4435 25.3917 26.2319 25.795 25.8088C26.1983 25.3872 26.4 24.8642 26.4 24.2399C26.4 23.6155 26.1895 23.0918 25.7686 22.6687C25.3462 22.247 24.8233 22.0362 24.2 22.0362H10.945C10.3217 22.0362 9.80833 22.247 9.405 22.6687C9.00167 23.0918 8.8 23.6155 8.8 24.2399C8.8 24.8642 9.01047 25.3872 9.4314 25.8088C9.8538 26.2319 10.3767 26.4435 11 26.4435ZM11 19.8326H33.055C33.6783 19.8326 34.1917 19.6211 34.595 19.198C34.9983 18.7763 35.2 18.2533 35.2 17.629C35.2 17.0046 34.9888 16.4809 34.5664 16.0578C34.1455 15.6362 33.6233 15.4254 33 15.4254H10.945C10.3217 15.4254 9.80833 15.6362 9.405 16.0578C9.00167 16.4809 8.8 17.0046 8.8 17.629C8.8 18.2533 9.01047 18.7763 9.4314 19.198C9.8538 19.6211 10.3767 19.8326 11 19.8326ZM11 13.2217H33.055C33.6783 13.2217 34.1917 13.0109 34.595 12.5893C34.9983 12.1662 35.2 11.6425 35.2 11.0181C35.2 10.3938 34.9888 9.87003 34.5664 9.44693C34.1455 9.0253 33.6233 8.81449 33 8.81449H10.945C10.3217 8.81449 9.80833 9.0253 9.405 9.44693C9.00167 9.87003 8.8 10.3938 8.8 11.0181C8.8 11.6425 9.01047 12.1662 9.4314 12.5893C9.8538 13.0109 10.3767 13.2217 11 13.2217ZM0 38.7287V4.40725C0 3.19525 0.4312 2.15735 1.2936 1.29353C2.15453 0.431175 3.19 0 4.4 0H39.6C40.81 0 41.8462 0.431175 42.7086 1.29353C43.5695 2.15735 44 3.19525 44 4.40725V30.8507C44 32.0627 43.5695 33.1006 42.7086 33.9644C41.8462 34.8268 40.81 35.258 39.6 35.258H8.8L3.74 40.3263C3.04333 41.0241 2.24547 41.1798 1.3464 40.7935C0.4488 40.4086 0 39.7203 0 38.7287Z" fill="#2C698D"/>
</svg>
