<svg width="28" height="20" viewBox="0 0 28 20" fill="none" xmlns="http://www.w3.org/2000/svg">
<path d="M28 10C28 10.2947 27.8771 10.5773 27.6583 10.7857C27.4395 10.994 27.1428 11.1111 26.8333 11.1111H1.16667C0.857247 11.1111 0.560501 10.994 0.341709 10.7857C0.122917 10.5773 0 10.2947 0 10C0 9.70532 0.122917 9.4227 0.341709 9.21433C0.560501 9.00595 0.857247 8.88889 1.16667 8.88889H26.8333C27.1428 8.88889 27.4395 9.00595 27.6583 9.21433C27.8771 9.4227 28 9.70532 28 10ZM1.16667 2.22222H26.8333C27.1428 2.22222 27.4395 2.10516 27.6583 1.89679C27.8771 1.68841 28 1.4058 28 1.11111C28 0.816426 27.8771 0.533811 27.6583 0.325437C27.4395 0.117063 27.1428 0 26.8333 0H1.16667C0.857247 0 0.560501 0.117063 0.341709 0.325437C0.122917 0.533811 0 0.816426 0 1.11111C0 1.4058 0.122917 1.68841 0.341709 1.89679C0.560501 2.10516 0.857247 2.22222 1.16667 2.22222ZM26.8333 17.7778H1.16667C0.857247 17.7778 0.560501 17.8948 0.341709 18.1032C0.122917 18.3116 0 18.5942 0 18.8889C0 19.1836 0.122917 19.4662 0.341709 19.6746C0.560501 19.8829 0.857247 20 1.16667 20H26.8333C27.1428 20 27.4395 19.8829 27.6583 19.6746C27.8771 19.4662 28 19.1836 28 18.8889C28 18.5942 27.8771 18.3116 27.6583 18.1032C27.4395 17.8948 27.1428 17.7778 26.8333 17.7778Z" fill="#2C698D"/>
</svg>
