<svg width="367" height="367" viewBox="0 0 367 367" fill="none" xmlns="http://www.w3.org/2000/svg">
<path d="M147.028 30.05L158.544 95.0897C158.622 95.5516 158.605 96.0244 158.494 96.4795C158.383 96.9345 158.18 97.3622 157.899 97.7365C157.617 98.1108 157.263 98.4238 156.856 98.6565C156.45 98.8892 156 99.0367 155.535 99.09L106.357 105.314L95.1044 39.1442L142.345 27.0406C142.851 26.9102 143.378 26.8857 143.894 26.9687C144.41 27.0517 144.903 27.2404 145.343 27.5229C145.783 27.8054 146.159 28.1757 146.449 28.6106C146.739 29.0454 146.936 29.5355 147.028 30.05Z" fill="#4575D8"/>
<path d="M155.777 99.2074H155.542L106.276 105.439V105.329L94.9649 39.0561L142.315 26.9231C142.838 26.7896 143.382 26.7653 143.915 26.8518C144.447 26.9383 144.956 27.1337 145.409 27.4258C145.862 27.718 146.25 28.1005 146.549 28.5495C146.848 28.9985 147.051 29.5043 147.145 30.0353L158.661 95.0677C158.826 95.9989 158.615 96.9575 158.074 97.7334C157.534 98.5093 156.707 99.0393 155.777 99.2074Z" fill="#E0E0E0"/>
<path d="M140.649 27.1433L145.42 27.9287L157.237 94.664L157.487 96.0439L152.635 96.8953L140.649 27.1433Z" fill="#EBEBEB"/>
<path d="M94.8842 39.0415C94.8842 39.0415 111.032 29.2719 140.561 26.8938L152.621 96.9981L105.909 104.228L94.8842 39.0415Z" fill="white"/>
<path d="M94.8842 39.0415C94.8842 39.0415 94.8842 39.1442 94.9356 39.3497C94.9869 39.5553 95.0236 39.8562 95.097 40.2599C95.2292 41.06 95.4347 42.249 95.6989 43.7978L97.9743 57.1566C99.9194 68.6217 102.687 84.9165 105.968 104.221L105.902 104.177L152.613 96.932L152.562 97.0054C152.415 96.176 152.261 95.2805 152.107 94.385C147.754 69.0474 143.732 45.6401 140.517 26.9011L140.568 26.9451C134.038 27.4608 127.549 28.4147 121.147 29.8004C116.26 30.8584 111.443 32.2164 106.724 33.8668C103.707 34.9142 100.75 36.1247 97.8642 37.4927L96.565 38.1386L95.6329 38.6231L94.8989 39.0415L95.0824 38.924L95.6402 38.6084L96.5724 38.1166L97.8716 37.4634C100.75 36.0787 103.703 34.8535 106.716 33.7934C111.426 32.1408 116.233 30.7804 121.11 29.7197C127.514 28.3255 134.005 27.3642 140.539 26.8424H140.583V26.8864C143.864 45.6181 147.864 68.996 152.232 94.363C152.386 95.2585 152.54 96.154 152.679 96.9834V97.0495H152.613L105.902 104.279H105.85V104.228C102.591 84.9018 99.8387 68.5996 97.9083 57.1272C96.9394 51.3947 96.1834 46.8512 95.6622 43.7684C95.4053 42.227 95.2071 41.0379 95.0677 40.2379C95.009 39.8415 94.9576 39.5039 94.9209 39.3277L94.8842 39.0415Z" fill="#E0E0E0"/>
<path d="M96.888 38.491C97.9376 43.4528 101.233 61.5386 101.233 61.5386L103.149 57.252L106.371 60.0118L101.417 34.909L97.7835 36.7C97.4579 36.8583 97.1936 37.1196 97.0317 37.4434C96.8698 37.7673 96.8193 38.1355 96.888 38.491Z" fill="#E0E0E0"/>
<path d="M154.059 96.6531C154.059 96.6531 154.059 96.5944 154.059 96.477L153.957 95.9485C153.876 95.4861 153.751 94.8108 153.597 93.9373C153.281 92.1831 152.863 89.6508 152.283 86.5239C151.197 80.2556 149.736 71.5944 148.143 62.023C146.55 52.4516 145.09 43.7904 144.04 37.5221L142.734 30.094C142.587 29.2205 142.469 28.5379 142.396 28.0755C142.352 27.848 142.33 27.6718 142.308 27.547C142.286 27.4222 142.308 27.3709 142.308 27.3709L142.352 27.547C142.352 27.6645 142.403 27.8406 142.447 28.0682C142.528 28.5306 142.653 29.2132 142.814 30.0793C143.123 31.8409 143.548 34.3732 144.121 37.5001C145.207 43.7611 146.668 52.4223 148.261 62.001C149.853 71.5797 151.314 80.2262 152.364 86.5019L153.604 93.952C153.751 94.8255 153.868 95.5007 153.949 95.9705C153.949 96.198 154.015 96.3742 154.037 96.4916L154.059 96.6531Z" fill="#E0E0E0"/>
<path d="M155.336 96.4256C155.336 96.4256 152.599 81.0116 149.296 62.0303C145.993 43.0491 143.343 27.6204 143.372 27.6131C143.402 27.6057 146.11 43.0271 149.413 62.0083C152.716 80.9896 155.366 96.4182 155.336 96.4256Z" fill="#E0E0E0"/>
<path d="M41.2802 46.976L53.2077 114.298C53.2727 114.597 53.3976 114.879 53.5749 115.127C53.7521 115.376 53.978 115.586 54.2388 115.744C54.4997 115.903 54.79 116.007 55.0922 116.05C55.3944 116.092 55.7022 116.074 55.9969 115.994L106.371 105.38C107.582 105.101 106.408 103.017 106.21 101.887L81.474 41.6398C81.3602 41.0754 81.0299 40.5781 80.5538 40.2543C80.0777 39.9305 79.4938 39.806 78.927 39.9076L43.306 44.3923C42.9997 44.4199 42.7022 44.5099 42.432 44.6567C42.1617 44.8036 41.9244 45.0042 41.7346 45.2462C41.5448 45.4883 41.4066 45.7666 41.3284 46.0641C41.2503 46.3616 41.2339 46.6719 41.2802 46.976Z" fill="#E0E0E0"/>
<path d="M48.4587 43.4308L61.5459 114.012L106.202 104.323L95.1044 39.1442L48.4587 43.4308Z" fill="#EBEBEB"/>
<path d="M52.3122 41.5664C52.3122 41.5664 78.6187 31.7161 95.0457 39.658L106.144 104.837L64.9957 113.175L52.3122 41.5664Z" fill="white"/>
<path d="M52.3709 41.0526C52.459 41.5664 57.6557 70.7649 65.1131 112.647L65.0471 112.603L103.81 104.742L106.188 104.265L106.144 104.331C101.945 79.6684 98.0697 57.0171 95.053 39.1516C94.319 38.8213 93.585 38.4176 92.7703 38.1974L92.1977 37.9845C92.0107 37.9099 91.8196 37.8462 91.6252 37.7937L90.4802 37.4487C88.9835 37.0322 87.4608 36.7159 85.922 36.5018C84.454 36.2743 82.986 36.1789 81.518 36.0981C80.784 36.0981 80.1014 36.0541 79.4115 36.0541H78.3839C78.0462 36.0541 77.7086 36.0541 77.3709 36.0541C74.8803 36.1417 72.396 36.3597 69.9282 36.7073C67.6528 37.0303 65.5829 37.4413 63.7259 37.8083C60.0118 38.6011 57.1639 39.4231 55.2408 40.0103C54.2793 40.3113 53.5453 40.5462 53.0388 40.7443L52.3048 41.0012L53.0388 40.7297C53.5306 40.5608 54.2573 40.3113 55.2408 39.9957C57.1566 39.3938 60.0045 38.5644 63.7185 37.7937C65.6196 37.434 67.6895 37.0376 69.9722 36.7C72.4426 36.3505 74.9292 36.1275 77.4223 36.0321C77.7502 36.0321 78.0878 36.0321 78.4352 36.0321H79.4628C80.1528 36.0321 80.8574 36.0321 81.5694 36.0761C83.0374 36.1568 84.5054 36.2523 85.9734 36.4798C87.5143 36.6888 89.0395 37.0002 90.5389 37.412L91.6913 37.7643C91.886 37.8157 92.0772 37.8795 92.2638 37.9551L92.8437 38.168C93.6217 38.4249 94.363 38.7919 95.1337 39.1222L106.246 104.301V104.353H106.195L103.817 104.837L65.0691 112.713H65.0104V112.654C57.6117 70.7723 52.459 41.5664 52.3709 41.0526Z" fill="#E0E0E0"/>
<path d="M43.1592 46.5356L48.4587 43.4308L61.5459 114.012L55.0574 113.719L43.1592 46.5356Z" fill="#EBEBEB"/>
<path d="M56.3932 112.038C56.3932 112.038 53.7068 97.233 50.4698 78.949C47.2329 60.6651 44.5978 45.8383 44.6639 45.831C44.73 45.8236 47.3503 60.6431 50.5873 78.927C53.8242 97.2109 56.4226 112.038 56.3932 112.038Z" fill="#E0E0E0"/>
<path d="M47.9889 55.6592L44.9795 67.8289L51.3873 74.8313L47.9889 55.6592Z" fill="#F5F5F5"/>
<path d="M57.8612 111.384C57.8612 111.384 55.2996 97.2623 52.2094 79.8225C49.1193 62.3827 46.6457 48.2605 46.6824 48.2605C46.7191 48.2605 49.2441 62.3753 52.3342 79.8225C55.4244 97.2697 57.8979 111.377 57.8612 111.384Z" fill="#E0E0E0"/>
<path d="M59.7916 113.594C59.7916 113.594 57.0905 98.679 53.8316 80.2702C50.5726 61.8615 47.9596 46.9393 47.9596 46.932C47.9596 46.9246 50.668 61.8395 53.927 80.2556C57.1859 98.6716 59.8283 113.587 59.7916 113.594Z" fill="#E0E0E0"/>
<path d="M89.3939 47.1375C89.0242 47.1362 88.6555 47.0993 88.2929 47.0274C87.5589 46.9246 86.5606 46.7998 85.2981 46.6824C78.6919 46.059 72.0274 46.6082 65.6123 48.3045C64.3865 48.6275 63.4103 48.9211 62.7203 49.134C62.3741 49.2668 62.0149 49.3627 61.6487 49.4202C61.9755 49.2485 62.317 49.106 62.6689 48.9945C63.3369 48.7303 64.3204 48.4073 65.5462 48.0476C71.9766 46.1835 78.7157 45.6294 85.3642 46.4182C86.634 46.5723 87.6543 46.7338 88.3516 46.8806C88.7064 46.9329 89.0554 47.0189 89.3939 47.1375Z" fill="#E0E0E0"/>
<path d="M90.282 52.7599C89.9102 52.7538 89.5394 52.717 89.1737 52.6498C88.4397 52.5471 87.4488 52.4223 86.1863 52.3048C79.58 51.6815 72.9155 52.2306 66.5004 53.927C65.2746 54.2499 64.2984 54.5362 63.6084 54.7564C63.2623 54.8892 62.9031 54.9851 62.5368 55.0427C62.8637 54.8709 63.2051 54.7285 63.5571 54.6169C64.225 54.3527 65.2012 54.0297 66.427 53.6701C72.8576 51.8073 79.5965 51.2532 86.245 52.0406C87.5075 52.1947 88.5351 52.3562 89.2324 52.503C89.5894 52.5562 89.9408 52.6422 90.282 52.7599Z" fill="#E0E0E0"/>
<path d="M91.2289 58.3823C90.857 58.3765 90.4863 58.3397 90.1205 58.2722C89.3865 58.1695 88.3956 58.0447 87.1331 57.9273C80.5269 57.3039 73.8624 57.8531 67.4473 59.5494C66.2215 59.8724 65.2453 60.1586 64.5113 60.3788C64.1663 60.5074 63.8099 60.6032 63.447 60.6651C63.7729 60.4914 64.1145 60.3489 64.4672 60.2394C65.1352 59.9751 66.1114 59.6522 67.3372 59.2925C73.756 57.4341 80.482 56.88 87.1185 57.663C88.3883 57.8098 89.4085 57.9786 90.1132 58.1254C90.4925 58.1745 90.8662 58.2606 91.2289 58.3823Z" fill="#E0E0E0"/>
<path d="M92.139 64.0048C91.7696 63.9985 91.4014 63.9616 91.038 63.8947C90.304 63.7919 89.3131 63.6672 88.0433 63.5497C81.4394 62.9268 74.7775 63.4759 68.3648 65.1719C67.1316 65.4948 66.1628 65.7811 65.4288 66.0013C65.0818 66.1316 64.7228 66.2274 64.3571 66.2875C64.6871 66.117 65.0308 65.9746 65.3847 65.8618C66.0453 65.5976 67.0289 65.2746 68.2547 64.915C71.4699 63.9899 74.7699 63.3899 78.1049 63.124C81.425 62.8534 84.7636 62.91 88.0727 63.2928C89.3425 63.447 90.3627 63.6158 91.06 63.7626C91.427 63.8064 91.7885 63.8876 92.139 64.0048Z" fill="#E0E0E0"/>
<path d="M93.5483 69.73C93.1786 69.7233 92.8101 69.684 92.4473 69.6126C91.7133 69.5171 90.7151 69.3924 89.4526 69.2749C86.1575 68.9704 82.8424 68.9484 79.5436 69.2089C76.2444 69.4884 72.9757 70.0533 69.774 70.8971C68.5409 71.22 67.572 71.5063 66.838 71.7265C66.489 71.8504 66.1307 71.9461 65.7664 72.0127C66.0968 71.839 66.4404 71.6918 66.794 71.5723C67.4619 71.3154 68.4455 70.9851 69.6713 70.6255C76.1034 68.7709 82.8406 68.217 89.4893 68.996C90.7591 69.1501 91.7794 69.3116 92.4767 69.4584C92.8416 69.5153 93.2003 69.6063 93.5483 69.73Z" fill="#E0E0E0"/>
<path d="M95.9778 76.9232C95.589 76.9117 95.2014 76.8725 94.8181 76.8058C94.4511 76.747 93.996 76.6883 93.4676 76.6369C92.9391 76.5856 92.3445 76.5048 91.6766 76.4608C90.3481 76.336 88.7406 76.2773 86.9937 76.2479C85.2468 76.2186 83.3237 76.3066 81.2611 76.4681C79.1986 76.6296 77.3049 76.9012 75.5653 77.2021C73.8257 77.5031 72.2696 77.8407 70.9851 78.1857C70.3319 78.3398 69.752 78.5086 69.2456 78.6481C68.7391 78.7876 68.2914 78.9197 67.939 79.0371C67.5732 79.1748 67.1945 79.2756 66.8087 79.3381C67.1555 79.1595 67.5163 79.0098 67.8877 78.8903C68.24 78.7582 68.673 78.6041 69.1795 78.4426C69.686 78.2811 70.2658 78.0903 70.9117 77.9214C72.2036 77.5471 73.7597 77.1874 75.5066 76.8571C77.2535 76.5268 79.1766 76.2773 81.2245 76.1231C83.2723 75.969 85.2247 75.9103 86.9937 75.9323C88.7626 75.9543 90.3701 76.0718 91.6986 76.2332C92.3666 76.292 92.9684 76.3874 93.4969 76.4608C94.0254 76.5342 94.4732 76.6149 94.8402 76.6957C95.2255 76.7366 95.6064 76.8127 95.9778 76.9232Z" fill="#E0E0E0"/>
<path d="M97.2697 83.676C96.8799 83.6948 96.4892 83.6776 96.1026 83.6246C95.3686 83.5585 94.2676 83.5072 92.9244 83.4631C89.4264 83.3864 85.9276 83.5729 82.4576 84.021C78.3912 84.5348 74.7432 85.2688 72.1008 85.8046L68.974 86.4285C68.5969 86.5278 68.2109 86.5892 67.8216 86.612C68.1871 86.4738 68.5625 86.3634 68.9446 86.2817C69.6786 86.0982 70.7356 85.8413 72.0495 85.5477C75.468 84.75 78.9247 84.1253 82.4062 83.676C85.8944 83.2145 89.4167 83.0622 92.9317 83.2209C94.2823 83.3016 95.3686 83.3971 96.1173 83.5072C96.5058 83.5275 96.8917 83.584 97.2697 83.676Z" fill="#E0E0E0"/>
<path d="M97.622 90.9646C97.2386 90.999 96.853 90.999 96.4696 90.9646C95.7356 90.9646 94.6493 90.9646 93.3281 91.0307C89.8844 91.1771 86.4527 91.5325 83.0521 92.095C79.0591 92.7409 75.4846 93.563 72.9229 94.297C71.6384 94.642 70.6035 94.9282 69.8915 95.1337C69.5269 95.2622 69.1508 95.3556 68.7685 95.4127C69.1152 95.2419 69.4762 95.1019 69.8474 94.9943C70.5814 94.7374 71.5723 94.4144 72.8495 94.0401C76.1638 93.0716 79.5343 92.3068 82.942 91.75C86.3656 91.1726 89.8274 90.8512 93.2987 90.7885C94.6273 90.7885 95.7063 90.7885 96.4476 90.8472C96.8419 90.8487 97.2352 90.8881 97.622 90.9646Z" fill="#E0E0E0"/>
<path d="M133.331 37.1331C132.905 37.2404 132.47 37.3116 132.032 37.3459C131.188 37.456 129.977 37.6322 128.479 37.8597C125.485 38.3221 121.374 39.0855 116.897 40.2379C112.419 41.3903 108.456 42.7335 105.623 43.7904C104.199 44.3116 103.054 44.752 102.268 45.0676C101.865 45.2437 101.451 45.3933 101.028 45.5153C101.028 45.5153 101.123 45.4419 101.329 45.3465L102.21 44.9281C102.98 44.5758 104.111 44.0987 105.52 43.5335C109.205 42.0886 112.972 40.8631 116.801 39.8635C120.635 38.8739 124.525 38.1165 128.45 37.5955C129.918 37.3973 131.173 37.2652 132.025 37.1991L133.001 37.1331C133.11 37.1146 133.222 37.1146 133.331 37.1331Z" fill="#E0E0E0"/>
<path d="M137.537 48.9505C137.428 49.0022 137.312 49.0345 137.192 49.0459L136.186 49.2441L132.516 49.934C129.404 50.5286 125.118 51.402 120.427 52.5838C115.737 53.7655 111.531 54.9839 108.5 55.9161L104.918 57.0391L103.942 57.3401C103.828 57.3816 103.71 57.4063 103.589 57.4135C103.692 57.3541 103.8 57.3049 103.912 57.2667L104.867 56.8997C105.696 56.5841 106.914 56.1657 108.419 55.6592C111.429 54.6536 115.627 53.3838 120.332 52.2094C125.037 51.035 129.338 50.1909 132.472 49.6698C134.036 49.4055 135.306 49.2074 136.186 49.0973L137.199 48.9725C137.311 48.9565 137.424 48.9491 137.537 48.9505Z" fill="#E0E0E0"/>
<path d="M138.242 55.5124C138.133 55.5666 138.017 55.6013 137.897 55.6152L136.876 55.8207L133.118 56.5547C129.955 57.1639 125.58 58.0227 120.78 59.0943C115.979 60.166 111.641 61.2156 108.515 62.0303L104.808 62.9625L103.795 63.2047C103.678 63.2384 103.557 63.2581 103.435 63.2635C103.544 63.2025 103.66 63.1557 103.78 63.124L104.771 62.8157C105.63 62.5515 106.892 62.1918 108.441 61.7661C111.553 60.9147 115.877 59.8137 120.692 58.742C125.507 57.6704 129.918 56.8116 133.074 56.2758C134.667 56.0042 135.959 55.7987 136.847 55.6739L137.882 55.5344C138 55.5124 138.121 55.505 138.242 55.5124Z" fill="#E0E0E0"/>
<path d="M139.82 62.8157C139.82 62.9185 132.01 64.5406 122.343 66.4343C112.676 68.3281 104.808 69.774 104.786 69.6713C104.764 69.5685 112.588 67.9464 122.27 66.06C131.951 64.1736 139.798 62.713 139.82 62.8157Z" fill="#E0E0E0"/>
<path d="M142.08 69.9869C142.08 70.0897 134.278 71.6384 124.619 73.444C114.959 75.2497 107.105 76.6369 107.083 76.5342C107.061 76.4314 114.886 74.8753 124.545 73.0697C134.205 71.2641 142.058 69.8841 142.08 69.9869Z" fill="#E0E0E0"/>
<path d="M143.504 77.804C143.504 77.9068 135.665 79.2059 125.954 80.696C116.244 82.186 108.338 83.3163 108.338 83.2136C108.338 83.1108 116.178 81.8116 125.888 80.3216C135.599 78.8316 143.49 77.6866 143.504 77.804Z" fill="#E0E0E0"/>
<path d="M142.983 85.467C142.983 85.5771 136.069 86.7808 127.496 88.1607C118.923 89.5407 111.964 90.5756 111.95 90.4728C111.935 90.3701 118.864 89.1663 127.437 87.7791C136.01 86.3918 142.969 85.3642 142.983 85.467Z" fill="#E0E0E0"/>
<path d="M136.385 43.1298C136.276 43.1709 136.162 43.1981 136.047 43.2106L135.056 43.3794L131.459 43.9813C128.421 44.5098 124.244 45.3392 119.715 46.5062C115.187 47.6733 111.106 48.9651 108.192 49.9634L104.742 51.1745L103.81 51.4974C103.703 51.5458 103.589 51.5756 103.472 51.5855C103.567 51.5176 103.67 51.4632 103.78 51.424L104.69 51.035C105.49 50.6974 106.65 50.2423 108.104 49.7138C111.887 48.3296 115.738 47.1366 119.642 46.1392C124.207 44.9648 128.406 44.1795 131.459 43.717C132.986 43.4822 134.219 43.3207 135.078 43.2326L136.069 43.1372C136.173 43.1183 136.28 43.1158 136.385 43.1298Z" fill="#E0E0E0"/>
<path d="M335.6 26.1744H258.295V154.133H335.6V26.1744Z" fill="#E0E0E0"/>
<path d="M333.03 26.1744H255.726V154.133H333.03V26.1744Z" fill="#EBEBEB"/>
<path d="M329.742 28.7655H259.021V151.534H329.742V28.7655Z" fill="white"/>
<path d="M315.972 44.7226H272.483V135.584H315.972V44.7226Z" fill="#3E7D6A"/>
<path d="M272.483 103.435C272.38 94.9429 280.014 86.656 288.418 85.4743C292.426 84.9091 296.683 85.7018 300.434 84.1678C307.113 81.43 309.242 72.5486 315.972 69.9135L316.281 135.584H272.483V103.435Z" fill="#E29257"/>
<path d="M38.902 239.387C34.8644 236.854 30.299 235.282 25.5579 234.792C23.3559 234.564 20.9997 234.63 19.2528 235.952C19.0506 236.067 18.8832 236.236 18.7683 236.438C18.6534 236.641 18.5951 236.871 18.5996 237.104C18.6998 237.434 18.9198 237.714 19.2161 237.889C24.6477 242.036 32.8538 242.558 38.902 239.357" fill="#E29257"/>
<path d="M38.557 239.005C35.4679 236.738 32.5866 234.201 29.9472 231.423C27.2942 228.629 25.4279 225.182 24.5376 221.433C24.3101 220.295 24.2367 218.996 24.9707 218.086C31.8336 223.452 37.2358 230.395 38.557 239.005Z" fill="#E29257"/>
<path d="M38.8286 239.328C38.1955 235.579 38.2502 231.746 38.9901 228.017C39.8562 224.347 41.86 220.787 45.0162 218.681C46.2053 221.455 45.6915 224.655 44.8548 227.555C43.5638 232.043 41.5535 236.291 38.902 240.135" fill="#E29257"/>
<path d="M45.5667 251.395C41.4783 251.894 37.9184 254.045 34.865 256.812C31.7984 259.605 29.6619 263.271 28.7434 267.315C32.7584 267.073 36.1568 264.24 38.6231 261.069C41.0893 257.898 42.7995 254.426 45.508 251.461" fill="#E29257"/>
<path d="M47.0274 253.325C45.4224 249.24 44.8604 244.819 45.3922 240.462C45.9241 236.105 47.5329 231.949 50.0735 228.369C52.4003 236.656 51.5415 245.985 47.0274 253.325Z" fill="#E29257"/>
<path d="M55.9235 263.917C52.187 263.685 48.4648 264.557 45.2203 266.425C41.9758 268.292 39.3522 271.073 37.6762 274.421C37.456 274.876 37.2505 275.448 37.5588 275.852C37.7149 276.005 37.9062 276.118 38.116 276.181C38.3258 276.244 38.5478 276.254 38.7625 276.212C42.3591 275.977 45.552 273.811 48.1798 271.352C50.8075 268.894 53.0976 266.038 56.0042 263.91" fill="#E0E0E0"/>
<path d="M55.6372 263.345C53.7287 257.177 53.6116 250.595 55.2996 244.363C55.9675 241.919 57.0905 239.343 59.3513 238.198C59.4335 238.128 59.5324 238.081 59.6383 238.061C59.7441 238.041 59.8534 238.049 59.9554 238.083C60.0574 238.118 60.1486 238.179 60.2203 238.259C60.2919 238.34 60.3415 238.437 60.3642 238.543C61.1198 240.254 61.4473 242.123 61.3184 243.989C61.1853 245.847 60.9006 247.69 60.4669 249.501C59.7329 252.87 59.3733 256.496 57.5309 259.403C57.0916 260.112 56.6969 260.847 56.3492 261.605C56.0042 262.339 55.9969 262.603 55.6813 263.19" fill="#E29257"/>
<path d="M79.1913 266.853C77.4443 260.247 79.3014 252.173 83.4778 246.727C83.7861 246.33 84.2118 245.897 84.6963 245.949C85.4303 246.015 85.6725 247.042 85.6358 247.813C85.3178 254.639 83.0844 261.237 79.1913 266.853Z" fill="#E0E0E0"/>
<path d="M81.3125 268.306C89.3865 270.398 98.6276 268.365 105.336 263.418C101.316 261.399 96.7191 260.836 92.3299 261.825C87.9846 262.816 84.021 264.761 81.3199 268.306" fill="#E0E0E0"/>
<path d="M83.1035 263.888C87.6176 256.548 96.2788 251.718 104.903 251.278C103.912 254.786 101.028 257.517 97.7761 259.161C94.5245 260.805 90.8912 261.524 87.3093 262.221C85.9147 262.493 84.0063 262.787 83.1035 263.888Z" fill="#E0E0E0"/>
<path d="M79.639 242.44C80.8648 238.249 82.0906 234.029 82.4282 229.676C82.7659 225.323 82.142 220.78 79.8812 217.044C75.6681 225.206 75.2424 234.748 79.5142 242.881" fill="#E29257"/>
<path d="M93.8419 235.262C98.7744 226.3 108.838 219.114 119.025 218.13C115.091 227.914 104.382 235.475 93.8419 235.262Z" fill="#E0E0E0"/>
<path d="M90.7371 237.023C98.0771 238.139 104.36 242.837 111.238 245.684C112.677 246.382 114.274 246.688 115.869 246.573C116.611 246.564 117.333 246.328 117.937 245.897C118.541 245.465 118.997 244.858 119.245 244.159C119.494 243.46 119.521 242.701 119.324 241.985C119.127 241.27 118.716 240.632 118.145 240.157C117.171 239.256 116.025 238.562 114.776 238.117C107.289 234.997 99.2588 234.917 91.3683 236.81" fill="#E0E0E0"/>
<path d="M86.4799 242.22C88.1461 242.697 88.7186 243.556 90.0325 244.679C94.5312 248.501 99.8512 251.234 105.579 252.665C106.173 252.812 106.951 252.87 107.245 252.335C107.538 251.799 107.179 251.3 106.848 250.867C104.347 247.94 101.104 245.739 97.4605 244.495C93.8713 243.16 90.7665 241.559 86.4505 241.897" fill="#E0E0E0"/>
<path d="M81.6795 211.018C84.6961 213.797 88.2602 215.915 92.1433 217.235C96.0263 218.556 100.143 219.051 104.228 218.688C104.601 218.693 104.964 218.562 105.248 218.321C105.821 217.704 105.138 216.75 104.478 216.236C97.8716 211.062 89.7976 208.896 81.6722 211.018" fill="#E29257"/>
<path d="M87.346 208.933C91.3375 205.993 95.968 204.04 100.859 203.232C105.75 202.425 110.763 202.786 115.488 204.287C111.942 207.781 107.025 209.66 102.077 210.159C97.133 210.615 92.147 210.2 87.346 208.933Z" fill="#E29257"/>
<path d="M85.144 194.613C84.4908 188.007 84.9165 182.766 84.4541 176.116C84.4174 175.587 84.3073 174.949 83.8081 174.758C83.1182 174.486 82.5383 175.338 82.3401 176.043C81.3785 179.126 81.1331 182.388 81.6228 185.581C82.1125 188.774 83.3244 191.812 85.166 194.466" fill="#E29257"/>
<path d="M84.6302 195.339C89.115 192.565 92.484 188.946 95.5962 184.682C97.7615 181.746 99.5891 178.171 99.0974 174.538C96.0513 174.472 93.1666 176.153 91.1848 178.465C89.2974 180.862 87.9255 183.623 87.1552 186.575C86.2744 189.511 85.6872 192.447 84.6302 195.339Z" fill="#E29257"/>
<path d="M95.42 192.352C105.29 188.697 114.427 183.308 122.402 176.439C119.18 175.14 115.488 175.918 112.265 177.217C104.925 180.19 98.8918 185.203 95.2805 192.279" fill="#E29257"/>
<path d="M87.6616 198.965C92.6455 199.509 97.7027 199.861 102.643 199.039C107.582 198.217 112.089 196.301 116.633 194.385C117.031 194.272 117.37 194.009 117.579 193.651C117.652 193.441 117.659 193.214 117.599 193C117.538 192.786 117.414 192.596 117.242 192.455C116.891 192.18 116.481 191.99 116.045 191.897C111.113 190.517 105.769 191.163 100.932 192.8C96.3061 194.381 91.8582 196.443 87.6616 198.951" fill="#E29257"/>
<path d="M59.2191 211.245C55.8207 204.382 56.0409 196.374 58.9769 189.306C61.0468 192.455 61.2963 196.462 60.9147 200.213C60.533 203.964 59.4026 207.817 59.3292 211.583" fill="#3E7D6A"/>
<path d="M45.6401 204.397C41.3824 204.338 37.1593 205.169 33.2411 206.836C29.3229 208.503 25.796 210.97 22.8861 214.078C27.1213 214.746 31.4813 213.653 35.3641 211.774C39.247 209.895 42.6381 207.252 46.0365 204.632" fill="#3E7D6A"/>
<path d="M36.5165 201.344C32.3621 201.006 28.3691 200.492 24.3835 201.718C20.3979 202.944 16.7572 205.711 15.1277 209.557C19.0444 209.875 22.9746 209.133 26.5047 207.406C30.0165 205.689 33.3672 203.66 36.5165 201.344Z" fill="#3E7D6A"/>
<path d="M50.0294 201.483C46.2934 199.031 42.4619 196.543 38.1166 195.53C33.7713 194.517 28.7288 195.244 25.69 198.54C29.2059 200.61 33.4777 200.852 37.5588 200.852C41.6398 200.852 46.6384 200.8 50.4919 202.158" fill="#3E7D6A"/>
<path d="M50.0515 201.681C43.6657 195.413 41.2435 184.146 43.8198 175.58C48.8555 183.297 51.058 192.522 50.0515 201.681Z" fill="#3E7D6A"/>
<path d="M67.6087 183.918C68.8125 181.122 69.6566 178.178 70.7356 175.331C71.7199 172.439 73.2332 169.756 75.1983 167.418C77.1937 165.068 80.033 163.597 83.1035 163.322C82.1231 167.641 80.2523 171.707 77.6107 175.261C74.9692 178.815 71.6151 181.779 67.7629 183.962" fill="#3E7D6A"/>
<path d="M64.4305 187.618C62.434 184.88 60.1366 181.151 57.4355 179.103C54.7344 177.055 51.2112 175.822 47.8935 176.608C49.6013 179.6 51.9831 182.153 54.8498 184.064C57.7166 185.976 60.9894 187.192 64.4085 187.618" fill="#3E7D6A"/>
<path d="M65.0618 184.146C63.7626 180.828 62.4414 177.474 61.9129 173.951C61.3844 170.427 61.7074 166.655 63.513 163.579C67.0142 170.185 68.1446 177.312 65.2453 184.219" fill="#3E7D6A"/>
<path d="M67.6381 163.579C69.6199 156.973 75.6387 152.173 82.1273 149.956C82.931 149.627 83.802 149.496 84.6669 149.575C85.0982 149.622 85.506 149.795 85.839 150.073C86.172 150.352 86.4154 150.722 86.5386 151.138C86.7735 152.254 85.856 153.259 84.9825 154.001C79.9095 158.335 74.0087 161.594 67.6381 163.579Z" fill="#3E7D6A"/>
<path d="M67.7115 158.206C67.9611 153.971 68.2253 149.677 69.6052 145.67C70.9852 141.662 73.6349 137.889 77.4957 136.128C78.149 140.407 76.2626 144.657 73.9872 148.341C71.7118 152.026 68.974 155.491 67.6087 159.594" fill="#3E7D6A"/>
<path d="M67.6088 161.12C65.9646 156.335 65.7958 150.257 62.9332 146.088C60.9293 143.152 57.7218 141.185 55.9895 138.102C54.9505 141.063 55.0951 144.31 56.3932 147.167C57.6988 149.991 59.4956 152.561 61.7 154.757C63.8213 157.025 65.6343 158.727 67.572 161.12" fill="#3E7D6A"/>
<path d="M67.6381 302.056C67.5133 302.056 67.4032 270.127 67.3885 230.755C67.3739 191.383 67.4766 159.454 67.6087 159.454C67.7409 159.454 67.8436 191.368 67.851 230.755C67.8583 270.141 67.7629 302.056 67.6381 302.056Z" fill="#5C5C5C"/>
<path d="M95.5375 206.423C95.151 206.611 94.748 206.763 94.3337 206.878L91.0307 207.986C88.2488 208.94 84.4247 210.313 80.2702 212.016C76.1158 213.719 72.277 215.209 70.0676 217.154C69.1894 217.891 68.4893 218.817 68.0198 219.862C67.7042 220.596 67.6454 221.073 67.6087 221.066C67.572 221.059 67.6087 220.949 67.6087 220.728C67.6596 220.411 67.7382 220.1 67.8436 219.796C68.2635 218.684 68.9519 217.693 69.8475 216.912C71.1744 215.786 72.6579 214.858 74.2515 214.159C76.0204 213.337 77.9802 212.471 80.0647 211.62C84.2265 209.909 88.0873 208.581 90.9059 207.707C92.3078 207.267 93.4602 206.973 94.253 206.731C94.6711 206.59 95.101 206.487 95.5375 206.423Z" fill="#5C5C5C"/>
<path d="M104.683 183.962C104.583 184.093 104.47 184.214 104.345 184.322L103.318 185.284L99.4937 188.755L86.7661 200.088C81.797 204.492 77.5031 208.742 74.5304 211.92C73.0624 213.513 71.8659 214.856 71.0659 215.745L70.141 216.802C70.0396 216.932 69.9239 217.05 69.7961 217.154C69.8676 217.005 69.959 216.867 70.0676 216.743C70.2585 216.486 70.5447 216.104 70.9264 215.635C71.6604 214.673 72.8275 213.322 74.2881 211.7C78.1307 207.505 82.193 203.516 86.4579 199.751C91.4491 195.347 95.9999 191.368 99.2808 188.513L103.2 185.152L104.279 184.249C104.536 184.051 104.668 183.948 104.683 183.962Z" fill="#5C5C5C"/>
<path d="M81.4006 204.588C81.2758 204.529 82.3108 202.136 83.3457 199.105C84.3806 196.073 84.8798 193.512 85.0119 193.534C85.144 193.556 84.8357 196.184 83.7788 199.252C83.3366 200.559 82.822 201.84 82.2374 203.09C82.0339 203.628 81.7519 204.133 81.4006 204.588Z" fill="#5C5C5C"/>
<path d="M67.6675 223.914C67.3928 223.644 67.1468 223.347 66.9335 223.026L64.9664 220.508C63.3222 218.38 61.0468 215.436 58.4925 212.221C55.9382 209.007 53.5894 206.115 51.8865 204.03C51.0864 203.039 50.4185 202.202 49.8826 201.549C49.6175 201.257 49.3815 200.94 49.178 200.602C49.4825 200.849 49.7605 201.127 50.0074 201.432C50.5212 201.989 51.2406 202.804 52.1214 203.817C53.8903 205.858 56.2831 208.713 58.8375 211.935C61.3918 215.157 63.6305 218.13 65.2159 220.31C66.0086 221.404 66.6399 222.292 67.0583 222.916C67.294 223.227 67.4981 223.562 67.6675 223.914Z" fill="#5C5C5C"/>
<path d="M61.5532 216.06C61.4725 216.141 59.843 214.203 58.9842 211.26C58.5053 209.695 58.309 208.057 58.4044 206.423H58.6099C58.5218 206.797 58.4484 206.988 58.4191 206.988C58.3897 206.988 58.375 206.775 58.4191 206.393H58.6246C58.7258 207.997 59.004 209.585 59.454 211.128C60.2541 213.983 61.656 215.979 61.5532 216.06Z" fill="#5C5C5C"/>
<path d="M53.6554 206.122C53.1029 205.705 52.5014 205.358 51.8644 205.087C50.2542 204.608 48.5611 204.473 46.8953 204.691C45.2099 204.823 43.5381 205.093 41.8967 205.498C41.2224 205.713 40.533 205.877 39.8342 205.99C40.4485 205.624 41.114 205.352 41.8086 205.182C43.4503 204.674 45.1445 204.354 46.8586 204.228C48.5912 203.999 50.3534 204.191 51.9966 204.786C52.6849 205.03 53.2699 205.501 53.6554 206.122Z" fill="#5C5C5C"/>
<path d="M51.7837 203.714C51.7837 203.788 50.7414 203.303 49.0385 202.716C46.8244 201.97 44.5268 201.499 42.1977 201.314C39.8677 201.141 37.5252 201.259 35.2247 201.666C33.4557 201.982 32.3914 202.312 32.3621 202.239C32.5899 202.1 32.8373 201.996 33.0961 201.931C33.773 201.692 34.4643 201.495 35.1659 201.344C37.4885 200.839 39.8717 200.674 42.2417 200.852C44.6183 201.028 46.9557 201.555 49.178 202.415C49.8411 202.672 50.4861 202.974 51.1084 203.318C51.3495 203.421 51.5765 203.554 51.7837 203.714Z" fill="#5C5C5C"/>
<path d="M67.6087 193.534C67.484 193.57 66.5885 190.458 65.6049 186.59C64.6214 182.722 63.9314 179.566 64.0562 179.536C64.181 179.507 65.0764 182.612 66.0527 186.48C67.0289 190.348 67.7262 193.504 67.6087 193.534Z" fill="#5C5C5C"/>
<path d="M67.7335 193.534C67.5941 193.578 66.9995 191.501 65.5315 189.379C64.5924 188.123 63.4973 186.991 62.2726 186.01C62.7344 186.132 63.1633 186.355 63.5277 186.664C64.4558 187.34 65.2624 188.169 65.9132 189.115C67.4546 191.324 67.8436 193.526 67.7335 193.534Z" fill="#5C5C5C"/>
<path d="M67.6381 285.034C67.5867 285.034 67.4913 284.3 67.1316 282.913C66.6077 281.004 65.8946 279.153 65.003 277.386C62.801 272.879 58.7787 267.161 53.6848 261.436C51.1525 258.551 48.7009 255.828 46.6237 253.223C44.7557 250.929 43.0674 248.495 41.5738 245.941C40.5734 244.216 39.7213 242.409 39.0268 240.539C38.7919 239.871 38.6231 239.35 38.5277 238.99C38.4633 238.812 38.419 238.628 38.3955 238.44C38.3955 238.44 38.6671 239.174 39.1956 240.473C39.9412 242.304 40.8245 244.075 41.838 245.773C43.3753 248.286 45.0924 250.685 46.976 252.951C49.0679 255.535 51.5195 258.243 54.0518 261.135C59.1898 266.875 63.168 272.659 65.3187 277.283C66.1927 279.078 66.8672 280.964 67.3298 282.906C67.4766 283.596 67.5794 284.139 67.6161 284.506C67.6405 284.681 67.6478 284.858 67.6381 285.034Z" fill="#5C5C5C"/>
<path d="M92.851 256.562C92.4255 256.833 91.9843 257.078 91.5298 257.296C90.3336 257.968 89.188 258.726 88.102 259.564C86.4956 260.81 84.991 262.182 83.6026 263.667C82.0172 265.334 80.395 267.271 78.7288 269.349C75.4112 273.518 72.3063 277.202 70.442 280.146C69.5025 281.614 68.8125 282.832 68.3648 283.698C68.1501 284.157 67.9049 284.601 67.6308 285.027C67.6533 284.897 67.6953 284.77 67.7555 284.653C67.851 284.418 67.9831 284.058 68.196 283.618C68.777 282.356 69.4339 281.13 70.1631 279.948C71.9687 276.938 75.0515 273.195 78.3618 269.04C80.028 266.956 81.6722 265.018 83.287 263.352C84.7054 261.866 86.2475 260.503 87.8965 259.278C89.0114 258.456 90.1951 257.732 91.4344 257.113C91.8748 256.893 92.2344 256.761 92.4693 256.658C92.5907 256.606 92.7195 256.574 92.851 256.562Z" fill="#E0E0E0"/>
<path d="M93.3428 265.796C92.4226 266.005 91.4877 266.143 90.5463 266.207C88.3092 266.437 86.0979 266.872 83.9403 267.506C81.8015 268.201 79.7962 269.253 78.0095 270.618C76.6443 271.675 75.9984 272.549 75.9323 272.497C76.0354 272.263 76.1768 272.047 76.3507 271.859C76.7866 271.319 77.2787 270.827 77.8187 270.391C79.5862 268.916 81.6226 267.796 83.8155 267.095C86.0065 266.443 88.2646 266.041 90.5463 265.899C91.4735 265.781 92.4094 265.747 93.3428 265.796Z" fill="#E0E0E0"/>
<path d="M76.7324 271.485C76.5929 271.404 77.848 269.481 78.8243 266.897C79.8005 264.313 79.9546 261.994 80.1161 262.023C80.1876 262.511 80.1727 263.008 80.0721 263.491C79.9338 264.695 79.6605 265.879 79.2573 267.022C78.8356 268.156 78.2917 269.242 77.6352 270.259C77.407 270.716 77.1016 271.131 76.7324 271.485Z" fill="#E0E0E0"/>
<path d="M101.013 231.76C100.874 231.858 100.724 231.936 100.565 231.995L99.2515 232.597C98.679 232.839 97.9817 233.155 97.1963 233.566C96.4109 233.977 95.4861 234.396 94.5245 234.968L93.0051 235.834C92.4767 236.142 91.9555 236.502 91.3977 236.847C90.2747 237.53 89.1443 238.374 87.9479 239.225C82.8046 243.059 78.3177 247.702 74.6625 252.973C73.8477 254.199 73.0477 255.359 72.4018 256.504C72.0788 257.069 71.7338 257.605 71.4476 258.14C71.1613 258.676 70.8971 259.197 70.6328 259.697C70.0897 260.673 69.7006 261.605 69.3263 262.412C68.952 263.22 68.651 263.917 68.4235 264.497C68.1959 265.077 68.0124 265.48 67.873 265.833C67.8144 265.992 67.7381 266.145 67.6454 266.288C67.6732 266.122 67.72 265.959 67.7849 265.803L68.2547 264.438C68.4961 263.712 68.7754 262.999 69.0914 262.302C69.4437 261.487 69.8254 260.541 70.3392 259.55C70.5961 259.043 70.8604 258.522 71.1319 257.972C71.4035 257.421 71.7485 256.885 72.0715 256.305C72.71 255.146 73.5395 253.979 74.2735 252.731C77.9179 247.392 82.4425 242.711 87.6543 238.888C88.8727 238.029 90.0178 237.199 91.1555 236.524C91.7206 236.186 92.2491 235.827 92.7849 235.533L94.3337 234.682C95.3099 234.124 96.2421 233.72 97.0495 233.339C97.7334 233 98.434 232.696 99.1487 232.428L100.558 231.944C100.702 231.865 100.854 231.803 101.013 231.76Z" fill="#E0E0E0"/>
<path d="M81.063 245.156C81.2437 244.51 81.627 243.939 82.1566 243.527C83.3797 242.461 84.939 241.861 86.5606 241.831C88.157 241.821 89.7391 242.131 91.2142 242.741C91.84 242.937 92.4336 243.224 92.9758 243.593C92.3394 243.467 91.7154 243.286 91.1114 243.049C89.6507 242.554 88.1176 242.306 86.5753 242.315C85.0486 242.346 83.5708 242.86 82.3548 243.783C81.8931 244.211 81.4615 244.669 81.063 245.156Z" fill="#E0E0E0"/>
<path d="M78.0756 248.209C77.9508 248.136 79.0738 246.485 79.3307 244.121C79.5876 241.758 78.9123 239.901 79.0518 239.857C79.3157 240.207 79.4941 240.614 79.573 241.046C79.8387 242.065 79.9134 243.125 79.7931 244.172C79.674 245.221 79.355 246.238 78.8536 247.167C78.4646 247.872 78.1196 248.239 78.0756 248.209Z" fill="#E0E0E0"/>
<path d="M45.5887 289.607C46.2787 301.813 49.9927 314.218 55.6078 326.762H80.1968C85.5917 314.343 89.0048 301.953 89.6214 289.607H45.5887Z" fill="#A6A6A6"/>
<path d="M85.6358 309.352C85.6358 309.476 77.5618 309.587 67.5574 309.587C57.5529 309.587 49.4716 309.476 49.4716 309.352C49.4716 309.227 57.5456 309.124 67.5574 309.124C77.5691 309.124 85.6358 309.227 85.6358 309.352Z" fill="#FAFAFA"/>
<path d="M85.0853 313.77C85.0853 313.902 77.4957 314.005 68.1372 314.005C58.7787 314.005 51.1818 313.902 51.1818 313.77C51.1818 313.638 58.7714 313.543 68.1372 313.543C77.5031 313.543 85.0853 313.646 85.0853 313.77Z" fill="#FAFAFA"/>
<path d="M56.0042 297.622C56.129 297.622 56.2391 300.155 56.2391 303.281C56.2391 306.408 56.129 308.948 56.0042 308.948C55.8794 308.948 55.7767 306.416 55.7767 303.281C55.7767 300.147 55.8794 297.622 56.0042 297.622Z" fill="#FAFAFA"/>
<path d="M69.1795 297.622C69.3116 297.622 69.4144 300.25 69.4144 303.494C69.4144 306.739 69.3116 309.366 69.1795 309.366C69.0474 309.366 68.952 306.739 68.952 303.494C68.952 300.25 69.0547 297.622 69.1795 297.622Z" fill="#FAFAFA"/>
<path d="M81.5474 297.52C81.6795 297.52 81.7823 300.199 81.7823 303.502C81.7823 306.805 81.6795 309.484 81.5474 309.484C81.4153 309.484 81.3199 306.812 81.3199 303.502C81.3199 300.191 81.4226 297.52 81.5474 297.52Z" fill="#FAFAFA"/>
<path d="M88.814 297.622C88.814 297.747 79.316 297.85 67.6014 297.85C55.8868 297.85 46.3961 297.747 46.3961 297.622C46.3961 297.498 55.8868 297.387 67.6014 297.387C79.316 297.387 88.814 297.49 88.814 297.622Z" fill="#FAFAFA"/>
<path d="M342.139 326.975C342.139 327.078 271.11 327.166 183.507 327.166C95.9044 327.166 24.8606 327.078 24.8606 326.975C24.8606 326.872 95.8751 326.784 183.507 326.784C271.14 326.784 342.139 326.872 342.139 326.975Z" fill="#263238"/>
<path d="M272.754 140.546C272.076 140.449 271.384 140.54 270.753 140.809C270.123 141.079 269.579 141.516 269.18 142.073C268.515 143.159 268.217 144.43 268.328 145.699C268.29 146.905 268.634 148.092 269.312 149.09C270.354 150.322 271.827 151.11 273.43 151.292C274.933 151.469 276.457 151.277 277.87 150.734C278.223 149.266 277.87 147.417 277.518 145.838C277.294 144.638 276.791 143.507 276.05 142.535C275.233 141.49 274.06 140.782 272.754 140.546Z" fill="#455A64"/>
<path d="M305.241 137.111C305.206 137.284 305.157 137.453 305.094 137.618C304.977 137.985 304.816 138.462 304.625 139.086C304.199 140.326 303.612 142.124 302.922 144.37C302.232 146.617 301.454 149.296 300.72 152.298C299.986 155.3 299.208 158.625 298.518 162.133C297.828 165.642 297.358 169.018 296.962 172.094C296.565 175.169 296.308 177.966 296.14 180.285C295.971 182.605 295.853 184.52 295.802 185.827C295.765 186.451 295.743 186.957 295.721 187.339C295.723 187.514 295.703 187.689 295.663 187.86C295.653 187.684 295.653 187.508 295.663 187.331C295.663 186.95 295.663 186.451 295.663 185.819C295.663 184.513 295.743 182.612 295.883 180.27C296.022 177.929 296.264 175.132 296.617 172.05C296.969 168.967 297.49 165.59 298.151 162.067C298.811 158.544 299.619 155.212 300.353 152.21C301.087 149.208 301.931 146.521 302.665 144.29C303.399 142.058 304.008 140.26 304.485 139.034C304.705 138.447 304.889 137.977 305.021 137.625C305.074 137.446 305.148 137.273 305.241 137.111Z" fill="#263238"/>
<path d="M275.867 147.534C275.974 147.661 276.068 147.798 276.145 147.945L276.879 149.149C277.525 150.198 278.414 151.754 279.463 153.7C280.513 155.645 281.665 158.001 282.906 160.658C284.146 163.315 285.335 166.288 286.488 169.466C287.64 172.644 288.579 175.712 289.365 178.531C290.15 181.349 290.737 183.911 291.163 186.076C291.589 188.242 291.897 190.003 292.081 191.214L292.279 192.624C292.313 192.785 292.328 192.95 292.323 193.115C292.266 192.961 292.227 192.801 292.205 192.638C292.132 192.279 292.044 191.816 291.934 191.244C291.721 190.025 291.376 188.271 290.899 186.106C290.422 183.94 289.805 181.401 289.027 178.597C288.249 175.793 287.266 172.725 286.128 169.569C284.99 166.412 283.764 163.44 282.583 160.761C281.401 158.082 280.249 155.74 279.228 153.788C278.208 151.835 277.357 150.257 276.747 149.186C276.461 148.679 276.234 148.261 276.057 147.945C275.978 147.816 275.914 147.678 275.867 147.534Z" fill="#263238"/>
<path d="M302.364 183.647H286.407C285.965 183.647 285.607 184.005 285.607 184.447V184.498C285.607 184.94 285.965 185.298 286.407 185.298H302.364C302.806 185.298 303.164 184.94 303.164 184.498V184.447C303.164 184.005 302.806 183.647 302.364 183.647Z" fill="#2C698D"/>
<path d="M308.889 202.18C308.309 195.758 303.245 194.877 302.283 194.194C302.074 194.041 301.887 193.861 301.725 193.659C301.126 192.892 300.808 191.944 300.823 190.972V184.476H288.102V190.972C288.12 191.944 287.804 192.892 287.207 193.659C287.044 193.863 286.854 194.043 286.642 194.194C285.673 194.877 280.608 195.758 280.036 202.18C279.463 208.603 277.313 223.209 281.107 227.87C284.609 232.179 288.029 232.436 293.717 232.443H295.229C300.918 232.443 304.338 232.179 307.84 227.87C311.62 223.209 309.476 208.61 308.889 202.18Z" fill="#2C698D"/>
<path d="M302.76 185.35C302.76 185.452 299.01 185.541 294.385 185.541C289.761 185.541 286.01 185.452 286.01 185.35C286.01 185.247 289.761 185.159 294.385 185.159C299.01 185.159 302.76 185.24 302.76 185.35Z" fill="#263238"/>
<path d="M312.948 132.171C312.618 131.455 312.105 130.838 311.46 130.382C310.816 129.926 310.064 129.647 309.278 129.573C307.709 129.44 306.132 129.713 304.698 130.366C303.385 130.805 302.233 131.625 301.388 132.722C300.966 133.426 300.717 134.22 300.661 135.039C300.605 135.858 300.743 136.679 301.065 137.434C301.72 138.944 302.761 140.255 304.082 141.236C305.946 140.921 307.832 139.768 309.447 138.807C310.641 138.14 311.662 137.202 312.427 136.069C312.804 135.501 313.047 134.855 313.137 134.18C313.227 133.505 313.163 132.818 312.948 132.171Z" fill="#455A64"/>
<path d="M271.954 164.078C271.649 163.541 271.489 162.934 271.489 162.317C271.489 161.699 271.649 161.092 271.954 160.555C272.575 159.486 273.46 158.594 274.523 157.964C275.4 157.315 276.451 156.945 277.54 156.9C278.183 156.944 278.806 157.141 279.358 157.472C279.911 157.804 280.377 158.262 280.718 158.808C281.394 159.916 281.769 161.181 281.805 162.478C280.629 163.498 279.279 164.296 277.819 164.834C276.853 165.299 275.793 165.533 274.722 165.517C274.181 165.506 273.65 165.37 273.17 165.121C272.69 164.871 272.274 164.514 271.954 164.078Z" fill="#455A64"/>
<path d="M289.196 156.114C288.887 155.58 288.725 154.974 288.725 154.357C288.725 153.739 288.887 153.133 289.196 152.599C289.813 151.527 290.698 150.634 291.765 150.008C292.637 149.354 293.686 148.98 294.774 148.936C295.419 148.981 296.043 149.179 296.597 149.512C297.151 149.845 297.618 150.304 297.96 150.852C298.635 151.959 299.007 153.225 299.039 154.522C297.866 155.541 296.518 156.339 295.061 156.878C294.095 157.35 293.03 157.584 291.956 157.56C291.415 157.55 290.884 157.414 290.405 157.163C289.926 156.912 289.512 156.553 289.196 156.114Z" fill="#455A64"/>
<path d="M312.031 154.874C312.412 154.379 312.659 153.793 312.745 153.174C312.831 152.555 312.754 151.924 312.523 151.343C312.052 150.193 311.294 149.182 310.321 148.407C309.526 147.643 308.522 147.132 307.436 146.939C306.785 146.897 306.133 147.007 305.533 147.262C304.932 147.517 304.4 147.909 303.979 148.407C303.159 149.429 302.618 150.645 302.408 151.938C303.444 153.131 304.687 154.125 306.078 154.874C306.988 155.475 308.026 155.852 309.109 155.975C309.648 156.027 310.192 155.955 310.698 155.764C311.205 155.573 311.66 155.269 312.031 154.874Z" fill="#455A64"/>
<path d="M288.205 145.905C288.133 145.297 287.894 144.722 287.514 144.242C287.135 143.763 286.629 143.398 286.054 143.189C285.015 142.97 283.931 143.148 283.016 143.688C282.031 144.121 281.206 144.853 280.66 145.78C279.97 147.188 279.756 148.783 280.05 150.323C280.305 151.71 280.864 153.024 281.687 154.169C282.928 153.971 284.249 152.98 285.357 152.121C286.255 151.47 286.995 150.624 287.522 149.648C288.14 148.504 288.379 147.193 288.205 145.905Z" fill="#455A64"/>
<path d="M295.883 136.81C295.204 136.715 294.513 136.807 293.883 137.076C293.253 137.345 292.708 137.781 292.308 138.337C291.647 139.425 291.349 140.695 291.457 141.963C291.417 143.169 291.762 144.356 292.44 145.354C293.475 146.6 294.949 147.402 296.558 147.593C298.062 147.773 299.587 147.582 300.999 147.035C301.351 145.567 300.999 143.725 300.646 142.146C300.422 140.944 299.919 139.81 299.178 138.836C298.368 137.777 297.194 137.055 295.883 136.81Z" fill="#455A64"/>
<path d="M282.098 148.129C282.112 148.761 282.078 149.395 281.995 150.022C281.885 151.537 281.86 153.056 281.922 154.573C281.998 156.09 282.187 157.599 282.487 159.087C282.654 159.697 282.776 160.317 282.854 160.944C282.561 160.377 282.349 159.772 282.223 159.146C281.842 157.656 281.613 156.131 281.54 154.595C281.47 153.059 281.531 151.519 281.724 149.993C281.771 149.358 281.897 148.732 282.098 148.129Z" fill="#263238"/>
<path d="M285.563 167.264C284.934 166.307 284.252 165.386 283.522 164.504C282.983 163.909 282.38 163.375 281.724 162.911C281.225 162.559 280.858 162.427 280.88 162.368C280.902 162.309 281.298 162.368 281.863 162.684C282.593 163.095 283.25 163.623 283.808 164.247C284.66 165.072 285.267 166.116 285.563 167.264Z" fill="#263238"/>
<path d="M298.738 154.14C299.151 154.951 299.362 155.85 299.355 156.76C299.467 157.664 299.357 158.581 299.032 159.432C298.921 159.432 299.032 158.228 298.973 156.782C298.914 155.336 298.599 154.14 298.738 154.14Z" fill="#263238"/>
<path d="M303.215 150.712C302.248 152.543 301.06 154.249 299.678 155.791C300.101 154.843 300.643 153.953 301.292 153.142C301.832 152.257 302.478 151.441 303.215 150.712Z" fill="#263238"/>
<path d="M300.837 150.47C300.679 149.717 300.651 148.942 300.757 148.18C300.732 147.41 300.834 146.641 301.057 145.905C301.239 147.428 301.165 148.971 300.837 150.47Z" fill="#263238"/>
<path d="M281.35 213.499C281.187 212.706 281.104 211.9 281.1 211.091C281.002 209.135 281.002 207.175 281.1 205.219C281.166 204.081 281.217 203.017 281.357 201.997C281.464 201.103 281.759 200.243 282.223 199.472C282.542 198.952 282.983 198.519 283.508 198.209C283.688 198.079 283.902 198 284.124 197.982C283.43 198.364 282.852 198.927 282.451 199.611C282.046 200.367 281.797 201.195 281.717 202.048C281.592 203.01 281.555 204.103 281.496 205.241C281.386 207.509 281.386 209.572 281.401 211.062C281.435 211.874 281.418 212.688 281.35 213.499Z" fill="#263238"/>
<path d="M258.896 327.291C258.675 327.288 258.455 327.254 258.243 327.188C257.787 327.053 257.387 326.774 257.103 326.393C256.818 326.012 256.665 325.549 256.665 325.074V299.244H257.238V325.074C257.238 325.427 257.353 325.77 257.565 326.052C257.776 326.334 258.073 326.54 258.411 326.64C258.749 326.74 259.111 326.728 259.442 326.606C259.772 326.484 260.055 326.258 260.247 325.962L277.782 299.09L278.267 299.406L260.724 326.278C260.53 326.587 260.261 326.843 259.941 327.02C259.621 327.197 259.262 327.29 258.896 327.291Z" fill="#263238"/>
<path d="M328.546 327.291C328.181 327.286 327.823 327.192 327.504 327.015C327.185 326.838 326.915 326.585 326.718 326.278L309.183 299.406L309.66 299.09L327.203 325.962C327.393 326.26 327.675 326.487 328.006 326.611C328.337 326.734 328.699 326.747 329.037 326.646C329.376 326.546 329.673 326.339 329.884 326.055C330.094 325.771 330.207 325.427 330.205 325.074V299.244H330.784V325.074C330.784 325.55 330.63 326.014 330.344 326.395C330.058 326.776 329.656 327.054 329.199 327.188C328.987 327.254 328.767 327.288 328.546 327.291Z" fill="#263238"/>
<path d="M341.985 231.988H251.931V301.931H341.985V231.988Z" fill="#AE7461"/>
<path d="M314.996 263.55C314.996 263.55 314.996 263.396 314.996 263.102C314.996 262.809 314.996 262.368 314.996 261.796C314.996 260.643 314.996 258.955 314.996 256.768C314.996 252.364 314.996 246.037 314.952 238.058L315.033 238.161L256.959 238.212L257.076 238.058C257.076 246.918 257.076 255.513 257.076 263.55L256.966 263.403L298.518 263.469L310.651 263.513H313.91H314.754H313.939H310.702L298.591 263.55L256.966 263.623H256.856V263.477C256.856 255.439 256.856 246.844 256.856 237.985V237.838H256.9L314.974 237.889H315.047V237.985C315.047 245.985 315.047 252.364 315.003 256.753C315.003 258.955 315.003 260.614 315.003 261.759C315.003 262.317 315.003 262.75 315.003 263.044C315.003 263.337 314.996 263.55 314.996 263.55Z" fill="#263238"/>
<path d="M314.996 293.776C314.996 293.776 314.996 293.622 314.996 293.328C314.996 293.035 314.996 292.594 314.996 292.022C314.996 290.87 314.996 289.181 314.996 286.994C314.996 282.59 314.996 276.263 314.952 268.284L315.033 268.387L256.959 268.438L257.076 268.284C257.076 277.144 257.076 285.739 257.076 293.776L256.9 293.6L298.452 293.666L310.585 293.71H313.844H314.703H313.873H310.636L298.525 293.754L256.9 293.82H256.79V293.673C256.79 285.636 256.79 277.041 256.79 268.182V268.035H256.9L314.974 268.086H315.047V268.182C315.047 276.182 315.047 282.568 315.003 286.957C315.003 289.159 315.003 290.811 315.003 291.956C315.003 292.521 315.003 292.947 315.003 293.248C315.003 293.549 314.996 293.776 314.996 293.776Z" fill="#263238"/>
<path d="M274.054 237.911L275.94 240.539H297.564L299.714 237.911H274.054Z" fill="#263238"/>
<path d="M274.134 268.138L276.021 270.765H297.644L299.795 268.138H274.134Z" fill="#263238"/>
<path d="M341.993 231.988H321.242V301.931H341.993V231.988Z" fill="#6F4439"/>
<path d="M161.19 112.539C163.076 101.018 155.266 90.1482 143.744 88.2615C132.223 86.3748 121.354 94.1852 119.467 105.707C117.58 117.228 125.391 128.097 136.912 129.984C148.433 131.871 159.303 124.06 161.19 112.539Z" fill="white"/>
<path d="M161.48 109.124C161.456 109.013 161.442 108.9 161.436 108.786C161.436 108.537 161.399 108.206 161.37 107.781C161.37 107.56 161.37 107.311 161.319 107.047C161.267 106.782 161.23 106.489 161.179 106.166C161.085 105.422 160.937 104.686 160.739 103.964C160.24 101.993 159.448 100.107 158.39 98.3707C155.888 94.1817 152.003 90.9967 147.404 89.3648C142.806 87.7328 137.782 87.7561 133.199 89.4306C132.262 89.7674 131.349 90.1697 130.469 90.6343C129.575 91.1215 128.716 91.6709 127.899 92.2785C127.066 92.901 126.274 93.5777 125.529 94.3043C124.791 95.0659 124.105 95.875 123.473 96.7265C122.175 98.4769 121.166 100.425 120.486 102.496C119.048 106.782 119.048 111.421 120.486 115.708C121.163 117.78 122.172 119.728 123.473 121.477C124.107 122.329 124.793 123.141 125.529 123.907C126.274 124.631 127.066 125.305 127.899 125.925C128.716 126.535 129.575 127.087 130.469 127.577C131.351 128.038 132.263 128.44 133.199 128.78C136.722 130.058 140.523 130.375 144.209 129.698C147.134 129.146 149.909 127.983 152.352 126.284C154.796 124.585 156.854 122.389 158.39 119.84C159.45 118.105 160.241 116.219 160.739 114.247C160.937 113.524 161.084 112.789 161.179 112.045C161.23 111.729 161.289 111.436 161.319 111.164C161.348 110.893 161.355 110.65 161.37 110.43C161.37 110.005 161.421 109.696 161.436 109.432C161.441 109.316 161.456 109.201 161.48 109.087C161.48 109.087 161.48 109.205 161.48 109.432C161.48 109.66 161.48 110.012 161.48 110.438V111.172C161.48 111.443 161.407 111.744 161.363 112.06C161.282 112.803 161.144 113.539 160.952 114.262C160.483 116.261 159.705 118.175 158.647 119.936C157.112 122.536 155.041 124.781 152.572 126.519C150.103 128.258 147.292 129.452 144.326 130.021C140.566 130.753 136.678 130.464 133.067 129.184C132.114 128.839 131.185 128.432 130.285 127.966C129.373 127.47 128.497 126.911 127.665 126.292C125.92 125.039 124.393 123.51 123.143 121.763C121.815 119.984 120.784 118.001 120.09 115.891C118.622 111.519 118.622 106.787 120.09 102.415C120.786 100.307 121.817 98.3242 123.143 96.543C123.787 95.6752 124.489 94.8513 125.242 94.0768C126.003 93.3381 126.812 92.6515 127.665 92.0216C128.495 91.38 129.371 90.7987 130.285 90.282C131.185 89.8155 132.114 89.4084 133.067 89.0636C136.654 87.7704 140.521 87.4612 144.268 88.1681C147.233 88.7363 150.043 89.9287 152.512 91.6662C154.981 93.4037 157.052 95.6466 158.588 98.2459C159.644 100.007 160.421 101.921 160.893 103.92C161.086 104.642 161.223 105.378 161.304 106.122C161.348 106.445 161.399 106.738 161.421 107.01V107.744C161.421 108.17 161.421 108.478 161.421 108.757C161.421 109.036 161.48 109.124 161.48 109.124Z" fill="#263238"/>
<path d="M134.08 111.076C135.45 111.076 136.561 109.965 136.561 108.595C136.561 107.225 135.45 106.114 134.08 106.114C132.71 106.114 131.599 107.225 131.599 108.595C131.599 109.965 132.71 111.076 134.08 111.076Z" fill="#263238"/>
<path d="M140.715 111.076C142.085 111.076 143.196 109.965 143.196 108.595C143.196 107.225 142.085 106.114 140.715 106.114C139.345 106.114 138.234 107.225 138.234 108.595C138.234 109.965 139.345 111.076 140.715 111.076Z" fill="#263238"/>
<path d="M149.831 108.632C149.833 109.124 149.688 109.606 149.416 110.016C149.143 110.427 148.755 110.747 148.3 110.936C147.846 111.126 147.345 111.176 146.862 111.081C146.379 110.985 145.935 110.749 145.586 110.401C145.238 110.054 145 109.61 144.903 109.127C144.807 108.645 144.856 108.144 145.044 107.689C145.232 107.234 145.551 106.845 145.96 106.571C146.369 106.297 146.851 106.151 147.343 106.151C148.002 106.151 148.634 106.412 149.1 106.877C149.566 107.342 149.829 107.973 149.831 108.632Z" fill="#263238"/>
<path d="M171.294 113.719C171.294 114.299 171.121 114.867 170.799 115.35C170.476 115.833 170.018 116.209 169.481 116.431C168.945 116.653 168.354 116.711 167.785 116.598C167.215 116.485 166.692 116.205 166.282 115.795C165.871 115.384 165.591 114.861 165.478 114.291C165.365 113.722 165.423 113.132 165.645 112.595C165.867 112.059 166.244 111.6 166.726 111.277C167.209 110.955 167.777 110.783 168.358 110.783C169.136 110.783 169.883 111.092 170.434 111.643C170.984 112.193 171.294 112.94 171.294 113.719Z" fill="white"/>
<path d="M171.294 113.719C171.257 113.719 171.25 113.454 171.125 112.985C170.933 112.374 170.553 111.839 170.038 111.458C169.662 111.184 169.224 111.009 168.762 110.946C168.301 110.883 167.832 110.935 167.396 111.098C166.865 111.293 166.407 111.646 166.084 112.109C165.76 112.573 165.587 113.124 165.587 113.689C165.587 114.254 165.76 114.806 166.084 115.269C166.407 115.733 166.865 116.086 167.396 116.28C167.832 116.443 168.301 116.495 168.762 116.433C169.224 116.37 169.662 116.194 170.038 115.921C170.555 115.538 170.935 115.001 171.125 114.387C171.25 113.953 171.257 113.689 171.294 113.689C171.358 113.93 171.358 114.183 171.294 114.423C171.155 115.106 170.778 115.718 170.229 116.148C169.821 116.471 169.338 116.686 168.825 116.772C168.311 116.858 167.784 116.813 167.293 116.64C166.68 116.425 166.149 116.025 165.773 115.495C165.397 114.965 165.195 114.332 165.195 113.682C165.195 113.032 165.397 112.399 165.773 111.869C166.149 111.339 166.68 110.939 167.293 110.724C167.784 110.551 168.311 110.506 168.825 110.592C169.338 110.678 169.821 110.892 170.229 111.216C170.778 111.646 171.155 112.257 171.294 112.941C171.366 113.195 171.366 113.464 171.294 113.719Z" fill="#263238"/>
<path d="M226.799 261.847L246.022 327.291H240.62L214.115 261.392L226.799 261.847Z" fill="#6F4439"/>
<path d="M179.632 261.847L198.855 326.667H193.453L166.948 261.392L179.632 261.847Z" fill="#6F4439"/>
<path d="M121.073 261.847L103.648 326.667H109.05L133.764 261.392L121.073 261.847Z" fill="#AE7461"/>
<path d="M177.511 261.847L160.996 326.667H166.398L190.201 261.392L177.511 261.847Z" fill="#AE7461"/>
<path d="M110.658 233.471C110.658 233.471 109.19 213.741 112.163 208.104C115.135 202.467 144.055 191.046 144.055 191.046C144.055 191.046 163.873 159.748 177.136 153.127C190.4 146.506 242.147 147.417 249.67 157.641C257.194 167.866 248.767 194.649 244.855 210.9L230.711 250.617L226.806 261.847H119.084L110.658 233.471Z" fill="#2C698D"/>
<path d="M244.826 157.326C244.856 157.393 244.883 157.461 244.906 157.531C244.95 157.663 245.024 157.869 245.097 158.14C245.259 158.691 245.472 159.506 245.684 160.57C246.282 163.594 246.506 166.681 246.352 169.76C246.217 171.899 245.972 174.031 245.618 176.145C245.266 178.435 244.848 180.88 244.378 183.485C243.446 188.623 242.337 194.319 241.09 200.331V200.426L241.009 200.463C239.394 201.277 237.691 202.136 235.944 202.98C225.508 208.07 214.794 212.572 203.854 216.464C199.655 217.932 196.228 219.07 193.849 219.811L191.104 220.648L190.37 220.853L190.121 220.912L190.356 220.817L191.09 220.574L193.813 219.672C196.176 218.879 199.589 217.734 203.773 216.207C214.663 212.226 225.338 207.679 235.753 202.584C237.5 201.74 239.203 200.874 240.818 200.066L240.715 200.199C241.97 194.187 243.093 188.506 244.048 183.361C244.525 180.792 244.958 178.355 245.317 176.072C245.677 173.789 245.993 171.668 246.103 169.723C246.277 166.658 246.092 163.584 245.552 160.563C245.362 159.498 245.171 158.683 245.031 158.133C244.965 157.876 244.914 157.671 244.87 157.509C244.848 157.45 244.833 157.388 244.826 157.326Z" fill="#263238"/>
<path d="M124.56 249.597C125.087 251.601 125.491 253.635 125.771 255.689C126.174 257.723 126.453 259.779 126.608 261.847C126.08 259.843 125.675 257.809 125.397 255.755C124.993 253.721 124.714 251.664 124.56 249.597Z" fill="#263238"/>
<path d="M180.322 261.392C180.219 261.392 181.423 253.832 183.008 244.554C184.594 235.276 185.944 227.768 186.069 227.782C186.194 227.797 184.975 235.335 183.39 244.62C181.804 253.905 180.432 261.407 180.322 261.392Z" fill="#263238"/>
<path d="M50.5799 266.787L35.7752 285.526C35.7752 285.526 11.744 276.769 8.68321 279.97L43.9813 309.983L68.262 281.731L50.5799 266.787Z" fill="#263238"/>
<path d="M47.9889 293.277C48.2417 293.669 48.341 294.14 48.2678 294.601C48.1947 295.061 47.9543 295.478 47.5925 295.773C47.2085 296.038 46.7375 296.146 46.2762 296.075C45.8149 296.004 45.3982 295.759 45.1116 295.391C44.8465 294.975 44.7448 294.475 44.8261 293.989C44.9075 293.502 45.166 293.063 45.552 292.756C46.3594 292.286 47.754 292.572 48.0843 293.431" fill="#E0E0E0"/>
<path d="M43.9813 309.983L46.3154 307.047L11.5972 279.36C11.5972 279.36 9.44657 278.707 8.66119 279.97L43.9813 309.983Z" fill="#455A64"/>
<path d="M35.3568 284.858C35.2173 285.042 36.01 285.849 36.3844 287.126C36.7587 288.403 36.5972 289.512 36.8174 289.578C37.0376 289.644 37.6248 288.425 37.1404 286.891C36.656 285.357 35.4522 284.675 35.3568 284.858Z" fill="white"/>
<path d="M30.3509 283.243C30.1674 283.375 30.6665 284.308 30.6298 285.533C30.5931 286.759 30.1087 287.677 30.2922 287.816C30.4757 287.956 31.4079 287.082 31.4225 285.541C31.4372 283.999 30.4977 283.082 30.3509 283.243Z" fill="white"/>
<path d="M24.4789 285.886C24.6037 286.054 25.5799 285.401 25.9469 284.08C26.3139 282.759 25.8221 281.702 25.6239 281.783C25.4258 281.863 25.4992 282.788 25.1835 283.867C24.8679 284.946 24.3248 285.724 24.4789 285.886Z" fill="white"/>
<path d="M39.2029 280.968C39.1442 281.181 40.1351 281.621 41.0526 282.509C41.9701 283.397 42.4692 284.359 42.6821 284.286C42.8949 284.212 42.6821 282.979 41.5958 281.944C40.5094 280.909 39.2323 280.755 39.2029 280.968Z" fill="white"/>
<path d="M82.7585 234.946C82.7585 236.649 75.1689 314.68 75.1689 314.68L100.808 317.616C100.808 317.616 107.186 278.259 108.148 271.007C109.109 263.756 112.456 250.756 112.456 250.756L167.146 245.347C167.146 245.347 140.319 207.825 137.713 207.663C135.107 207.502 82.7585 234.946 82.7585 234.946Z" fill="#263238"/>
<path d="M38.4543 278.069C38.4543 278.069 84.3513 215.84 87.001 212.581C89.6508 209.322 92.7042 205.865 102.276 205.865C111.847 205.865 137.742 207.7 137.742 207.7L151.424 201.468L201.116 209.124C201.116 209.124 202.951 232.751 199.692 238.256C196.433 243.761 177.085 245.178 173.011 245.384C168.937 245.589 105.843 237.023 105.843 237.023C105.843 237.023 93.4822 254.184 87.5442 260.776C83.3163 265.48 60.7312 294.466 60.7312 294.466L38.4543 278.069Z" fill="#263238"/>
<path d="M60.7679 294.973L37.9405 278.142L38.1533 277.848C38.6157 277.224 84.0944 215.583 86.7148 212.354C89.1957 209.3 92.2858 205.498 102.276 205.498C111.465 205.498 135.959 207.208 137.676 207.326L151.373 201.087H151.483L201.432 208.786V209.073C201.505 210.049 203.237 232.884 199.964 238.433C196.426 244.4 175.375 245.618 172.982 245.773C169.011 246 110.687 238.073 105.968 237.434C104.632 239.284 93.3281 254.874 87.7717 261.047C83.6026 265.686 61.2009 294.422 60.9734 294.708L60.7679 294.973ZM38.9607 277.988L60.6284 293.96C62.9772 290.943 83.2723 264.945 87.2432 260.533C93.1152 254.023 105.395 236.979 105.52 236.803L105.645 236.627H105.865C106.496 236.715 168.989 245.185 172.96 244.987C173.899 244.936 195.949 243.776 199.347 238.036C202.32 233.023 200.94 212.133 200.742 209.41L151.476 201.85L137.809 208.074H137.713C137.456 208.074 111.729 206.239 102.276 206.239C92.6381 206.239 89.6728 209.909 87.2873 212.845C84.7697 215.913 42.4032 273.327 38.9607 277.988Z" fill="#455A64"/>
<path d="M100.741 228.773C101.822 230.111 102.803 231.527 103.677 233.008C104.667 234.421 105.551 235.905 106.32 237.449C105.237 236.112 104.256 234.697 103.384 233.214C102.394 231.801 101.511 230.317 100.741 228.773Z" fill="#455A64"/>
<path d="M77.2388 299.252L78.538 323.099C78.538 323.099 54.7491 332.436 54.5656 336.906L100.888 336.033L100.374 298.789L77.2388 299.252Z" fill="#263238"/>
<path d="M92.8363 320.824C93.2849 320.951 93.6708 321.24 93.92 321.634C94.1692 322.028 94.2642 322.5 94.1869 322.96C94.0749 323.412 93.7942 323.803 93.4024 324.055C93.0106 324.306 92.5375 324.397 92.0803 324.311C91.6054 324.175 91.1978 323.868 90.9362 323.449C90.6745 323.03 90.5774 322.529 90.6637 322.043C90.9573 321.162 92.1831 320.457 93.0125 320.875" fill="#E0E0E0"/>
<path d="M100.888 335.996L100.69 332.245L56.3492 334.484C56.3492 334.484 54.316 335.438 54.5656 336.906L100.888 335.996Z" fill="#455A64"/>
<path d="M77.804 322.879C77.804 323.107 78.949 323.188 80.0721 323.892C81.1951 324.597 81.8116 325.536 82.0172 325.448C82.2227 325.36 81.863 324.054 80.4831 323.246C79.1032 322.439 77.7379 322.674 77.804 322.879Z" fill="white"/>
<path d="M72.9743 324.978C72.9229 325.199 73.9138 325.566 74.6992 326.505C75.4845 327.445 75.7268 328.458 75.947 328.443C76.1672 328.428 76.292 327.151 75.2937 325.991C74.2955 324.832 72.9743 324.766 72.9743 324.978Z" fill="white"/>
<path d="M70.3245 330.851C70.53 330.895 70.8237 329.757 70.2144 328.531C69.6052 327.305 68.5483 326.828 68.4528 327.019C68.3574 327.21 69.0327 327.856 69.5098 328.876C69.9869 329.896 70.097 330.829 70.3245 330.851Z" fill="white"/>
<path d="M78.0976 317.411C78.2003 317.616 79.2279 317.286 80.5124 317.345C81.7969 317.404 82.7952 317.793 82.9053 317.594C83.0154 317.396 82.0465 316.611 80.5418 316.56C79.0371 316.508 77.9875 317.235 78.0976 317.411Z" fill="white"/>
<path d="M170.861 147.651L172.49 162.53L153.81 200C153.81 200 142.763 203.67 138.851 207.7L147.798 208.089C160.702 208.627 173.116 213.179 183.309 221.11C187.713 224.56 191.288 228.289 191.948 231.68C193.893 241.662 196.873 240.121 196.873 240.121L208.199 225.551L216.126 209.785L232.047 148.026L216.684 139.585L213.234 134.564L190.48 137.735L185.952 142.205L170.861 147.651Z" fill="#455A64"/>
<path d="M133.126 187.566L142.668 183.573L157.663 162.537C157.663 162.537 164.622 148.628 170.875 147.651C177.129 146.675 172.49 162.53 172.49 162.53L162.875 189.834L147.365 200.69L136.671 199.758L129.749 193.886L133.126 187.566Z" fill="#455A64"/>
<path d="M172.351 152.826C172.31 152.995 172.253 153.16 172.182 153.318C172.05 153.67 171.866 154.125 171.646 154.691C171.161 155.931 170.479 157.627 169.649 159.74C167.969 164.012 165.715 169.936 163.249 176.483C160.783 183.03 158.485 188.961 156.738 193.189C155.872 195.31 155.146 197.02 154.624 198.195L154.023 199.538C153.963 199.701 153.884 199.856 153.788 200C153.823 199.831 153.877 199.666 153.949 199.509C154.089 199.164 154.265 198.701 154.492 198.136C154.977 196.903 155.659 195.2 156.489 193.086C158.17 188.821 160.423 182.898 162.889 176.344C165.355 169.789 167.646 163.866 169.392 159.645C170.266 157.524 170.993 155.806 171.514 154.639L172.116 153.289C172.177 153.127 172.256 152.972 172.351 152.826Z" fill="#263238"/>
<path d="M191.075 152.21C190.853 151.89 190.662 151.551 190.502 151.197C190.128 150.463 189.651 149.523 189.034 148.378H189.284C188.785 149.479 188.205 150.786 187.427 152.173C186.612 153.698 185.562 155.085 184.315 156.283L183.955 156.614L183.992 156.129V156.048C184.271 152.261 184.726 148.848 185.115 146.396C185.32 145.171 185.504 144.194 185.643 143.497C185.697 143.14 185.783 142.789 185.9 142.447C185.899 142.807 185.862 143.166 185.79 143.519C185.687 144.253 185.548 145.259 185.386 146.455C185.049 148.914 184.652 152.327 184.373 156.1V156.181L184.058 156.026C185.271 154.852 186.303 153.504 187.119 152.026C187.897 150.661 188.506 149.369 189.034 148.283L189.166 148.011L189.284 148.283C189.82 149.442 190.26 150.411 190.605 151.153C190.791 151.491 190.948 151.845 191.075 152.21Z" fill="#263238"/>
<path d="M215.187 140.744C215.131 140.855 215.059 140.956 214.974 141.045L214.313 141.853C213.726 142.587 212.845 143.541 211.759 144.737C208.888 147.837 205.849 150.777 202.657 153.545C200.955 155.013 199.288 156.393 197.732 157.604L197.453 157.825V157.472C197.408 155.088 197.022 152.723 196.308 150.448L196.492 150.514L193.703 152.114C193.374 152.318 193.03 152.497 192.675 152.65C192.974 152.406 193.293 152.187 193.629 151.997L196.367 150.301L196.492 150.22L196.543 150.367C197.323 152.655 197.749 155.049 197.806 157.465L197.519 157.326C199.061 156.107 200.72 154.735 202.408 153.259C206.144 150.015 209.329 146.859 211.575 144.525C212.699 143.358 213.587 142.389 214.211 141.728L214.945 140.994C215.017 140.903 215.098 140.819 215.187 140.744Z" fill="#263238"/>
<path d="M213.807 136.524L215.356 104.962C216.339 95.0824 211.407 86.267 201.498 85.5624H200.58C196.118 85.504 191.797 87.1276 188.477 90.1102C185.157 93.0928 183.081 97.2158 182.663 101.659C181.863 110.232 181.085 119.708 181.078 124.318C181.078 133.86 190.583 135.452 190.583 135.452C190.583 135.452 190.334 141.244 190.172 144.033L192.169 151.299L213.807 136.524Z" fill="#FFBF9D"/>
<path d="M190.605 135.445C195.014 135.497 199.345 134.282 203.083 131.944C203.083 131.944 200 139.064 190.502 138.087L190.605 135.445Z" fill="#FF9A6C"/>
<path d="M185.504 110.342C185.496 110.697 185.627 111.042 185.87 111.301C186.113 111.56 186.448 111.714 186.803 111.729C186.976 111.745 187.15 111.725 187.315 111.672C187.48 111.619 187.633 111.534 187.765 111.421C187.897 111.308 188.005 111.17 188.083 111.015C188.161 110.86 188.208 110.691 188.22 110.518C188.23 110.164 188.1 109.82 187.858 109.56C187.616 109.3 187.282 109.146 186.928 109.131C186.754 109.115 186.579 109.134 186.413 109.186C186.247 109.239 186.093 109.324 185.961 109.437C185.828 109.55 185.719 109.688 185.641 109.843C185.562 109.999 185.516 110.168 185.504 110.342Z" fill="#263238"/>
<path d="M184.652 105.535C184.821 105.718 185.863 104.969 187.324 104.991C188.785 105.013 189.856 105.762 190.018 105.586C190.179 105.41 189.93 105.182 189.46 104.852C188.838 104.389 188.085 104.132 187.309 104.118C186.548 104.107 185.802 104.338 185.181 104.778C184.726 105.138 184.572 105.454 184.652 105.535Z" fill="#263238"/>
<path d="M198.275 110.621C198.269 110.976 198.401 111.319 198.644 111.578C198.886 111.837 199.22 111.991 199.575 112.008C199.747 112.024 199.921 112.006 200.086 111.954C200.251 111.902 200.404 111.817 200.536 111.705C200.668 111.593 200.777 111.455 200.855 111.301C200.933 111.146 200.979 110.977 200.991 110.805C200.999 110.45 200.869 110.106 200.628 109.846C200.387 109.585 200.054 109.429 199.699 109.41C199.526 109.394 199.351 109.413 199.185 109.465C199.019 109.518 198.865 109.603 198.732 109.716C198.6 109.829 198.491 109.967 198.412 110.122C198.334 110.278 198.287 110.447 198.275 110.621Z" fill="#263238"/>
<path d="M199.002 106.063C199.171 106.247 200.213 105.498 201.674 105.52C203.134 105.542 204.206 106.254 204.368 106.107C204.529 105.96 204.28 105.711 203.817 105.373C203.188 104.928 202.437 104.687 201.666 104.683C200.905 104.668 200.159 104.897 199.538 105.336C199.083 105.696 198.914 105.982 199.002 106.063Z" fill="#263238"/>
<path d="M193.607 117.249C192.836 117 192.037 116.845 191.229 116.787C190.862 116.743 190.495 116.669 190.444 116.412C190.421 116.025 190.513 115.64 190.708 115.304C191.075 114.401 191.442 113.462 191.853 112.471C193.438 108.434 194.598 105.131 194.437 105.057C194.275 104.984 192.851 108.214 191.266 112.243C190.877 113.242 190.532 114.188 190.165 115.099C189.922 115.547 189.846 116.067 189.952 116.567C190.003 116.701 190.084 116.821 190.19 116.918C190.296 117.015 190.423 117.085 190.561 117.124C190.767 117.181 190.979 117.213 191.192 117.22C191.993 117.332 192.804 117.342 193.607 117.249Z" fill="#263238"/>
<path d="M198.591 101.476C198.782 101.85 200.213 101.476 201.938 101.476C203.663 101.476 205.109 101.754 205.292 101.365C205.366 101.182 205.08 100.844 204.478 100.536C203.68 100.15 202.801 99.9637 201.916 99.9928C201.028 99.9991 200.155 100.218 199.369 100.631C198.782 100.947 198.503 101.292 198.591 101.476Z" fill="#263238"/>
<path d="M184.645 101.233C184.939 101.571 186.113 101.233 187.581 101.285C189.049 101.336 190.223 101.578 190.517 101.241C190.642 101.079 190.466 100.734 189.944 100.411C189.221 100.012 188.408 99.8019 187.581 99.8019C186.754 99.8019 185.941 100.012 185.218 100.411C184.689 100.727 184.513 101.064 184.645 101.233Z" fill="#263238"/>
<path d="M214.504 111.671C214.666 111.597 221.073 109.814 220.78 116.332C220.486 122.85 214.012 121.205 214.012 121.015C214.012 120.824 214.504 111.671 214.504 111.671Z" fill="#FFBF9D"/>
<path d="M216.112 118.636C216.112 118.636 216.222 118.725 216.405 118.82C216.669 118.96 216.977 118.992 217.264 118.908C217.961 118.68 218.593 117.616 218.673 116.442C218.717 115.885 218.634 115.325 218.431 114.805C218.379 114.599 218.277 114.408 218.135 114.25C217.993 114.092 217.815 113.97 217.616 113.895C217.487 113.854 217.348 113.86 217.223 113.913C217.098 113.965 216.995 114.06 216.934 114.181C216.838 114.357 216.875 114.489 216.838 114.497C216.802 114.504 216.699 114.379 216.765 114.115C216.81 113.955 216.909 113.815 217.044 113.719C217.228 113.592 217.455 113.542 217.675 113.579C217.94 113.645 218.183 113.777 218.382 113.963C218.581 114.15 218.729 114.384 218.813 114.643C219.064 115.221 219.172 115.85 219.128 116.478C219.026 117.785 218.299 118.989 217.345 119.216C217.168 119.258 216.984 119.26 216.806 119.222C216.628 119.184 216.461 119.107 216.317 118.996C216.112 118.798 216.09 118.651 216.112 118.636Z" fill="#FF9A6C"/>
<path d="M170.009 92.0289C170.135 91.6557 170.397 91.3438 170.743 91.1555C171.52 90.8418 172.366 90.7404 173.195 90.8619C175.272 90.9128 177.333 90.4885 179.221 89.6214C178.59 89.2821 178.017 88.8434 177.525 88.3222C176.997 87.7933 176.624 87.1298 176.447 86.4038C176.27 85.6779 176.295 84.9172 176.52 84.2045C176.557 84.07 176.625 83.9459 176.718 83.8416C176.811 83.7373 176.926 83.6555 177.055 83.6026C177.489 83.4925 177.841 83.9256 178.12 84.2632C178.472 84.79 178.96 85.2119 179.533 85.4845C180.105 85.757 180.74 85.8702 181.371 85.8119C182.245 85.7944 183.104 85.5785 183.882 85.1807C183.91 85.153 183.937 85.1236 183.962 85.0926L185.005 84.1311C187.559 81.8043 189.739 80.2115 191.948 79.4335C195.178 78.2884 200.521 77.9655 203.802 79.0078C207.083 80.05 209.939 82.8392 210.254 86.2597C212.177 84.7917 214.974 84.9018 217.198 85.9074H217.257C219.738 86.9129 221.059 89.6361 221.661 92.2418C221.697 92.3886 221.727 92.528 221.756 92.6748C222.548 94.0703 223.663 95.2558 225.008 96.132C225.25 96.2861 225.521 96.4696 225.536 96.7559C225.551 97.0421 225.309 97.255 225.074 97.4091C224.445 97.8053 223.735 98.056 222.997 98.1431C223.188 98.7678 223.433 99.3744 223.731 99.9561C223.995 100.448 224.303 101.042 224.039 101.527C223.916 101.707 223.742 101.846 223.539 101.925C223.335 102.003 223.113 102.018 222.901 101.967C222.482 101.854 222.09 101.656 221.749 101.387C222.006 102.07 222.255 102.76 222.483 103.443C221.562 103.556 220.627 103.453 219.752 103.142C219.114 105.52 218.519 109.961 217.829 111.561C216.097 111.517 215.686 111.311 214.798 111.561C213.66 111.884 213.998 113.902 212.559 113.271C211.825 112.948 210.797 110.063 210.577 109.293C209.14 104.15 208.822 98.7584 209.645 93.4822C208.646 92.3214 207.432 91.3644 206.07 90.6637L206.181 90.7664C203.553 89.7315 200.58 88.6892 198.004 89.8343C196 90.7151 194.76 92.7042 193.225 94.2383C191.927 95.6677 190.339 96.8048 188.567 97.5742C186.796 98.3436 184.881 98.7276 182.949 98.701C182.45 101.564 182.135 106.261 181.878 108.933L179.823 103.465C179.654 103.142 179.514 102.819 179.382 102.496L179.331 102.4C179.118 101.879 178.912 101.358 178.641 100.844C178.318 101.086 177.918 101.204 177.515 101.176C177.112 101.147 176.733 100.975 176.446 100.689C176.16 100.404 175.987 100.025 175.957 99.6225C175.927 99.2197 176.044 98.8195 176.285 98.4955C176.527 98.1936 176.814 97.9311 177.136 97.7174C176.814 98.0189 176.422 98.2352 175.995 98.3467C175.568 98.4583 175.12 98.4614 174.692 98.356C174.26 98.203 173.891 97.9126 173.641 97.5294C173.39 97.1462 173.272 96.6914 173.305 96.2347C173.354 95.9282 173.483 95.6399 173.679 95.399C173.875 95.1581 174.13 94.9729 174.42 94.8622C173.223 94.9009 172.04 94.5842 171.022 93.952C170.376 93.5189 169.745 92.8583 170.009 92.0289Z" fill="#263238"/>
<path d="M207.238 87.2212C207.564 87.5053 207.871 87.8119 208.155 88.1387C208.872 89.081 209.33 90.1944 209.484 91.3683C209.611 92.1715 209.658 92.9854 209.623 93.7979C209.623 94.6787 209.476 95.6108 209.366 96.6017C209.236 97.6366 209.168 98.6783 209.161 99.7212C209.166 100.277 209.215 100.832 209.307 101.38C209.365 101.966 209.572 102.527 209.909 103.01C210.069 103.201 210.275 103.349 210.507 103.438C210.74 103.528 210.991 103.558 211.238 103.523C211.709 103.453 212.144 103.231 212.478 102.892C213.023 102.201 213.375 101.378 213.499 100.507H213.3C213.553 101.239 213.915 101.929 214.372 102.554C214.814 103.137 215.463 103.526 216.185 103.641C216.519 103.691 216.86 103.645 217.169 103.509C217.459 103.377 217.703 103.159 217.866 102.885C218.019 102.632 218.103 102.343 218.108 102.048C218.101 101.779 218.003 101.52 217.829 101.314L217.726 101.402C218.265 102.076 218.941 102.629 219.708 103.024C219.909 103.131 220.118 103.221 220.332 103.296C220.404 103.329 220.481 103.351 220.56 103.362L220.347 103.266C220.207 103.2 220.002 103.105 219.745 102.958C219.003 102.547 218.353 101.987 217.837 101.314L217.726 101.402C217.874 101.609 217.953 101.856 217.953 102.11C217.953 102.364 217.874 102.612 217.726 102.819C217.577 103.064 217.357 103.259 217.095 103.377C216.812 103.495 216.503 103.533 216.2 103.487C215.528 103.369 214.926 102.999 214.519 102.452C214.08 101.836 213.732 101.162 213.484 100.448L213.359 100.14L213.286 100.463C213.164 101.295 212.827 102.082 212.309 102.745C212.011 103.049 211.622 103.247 211.201 103.311C210.991 103.342 210.777 103.318 210.579 103.242C210.381 103.166 210.206 103.041 210.071 102.877C209.76 102.424 209.571 101.898 209.52 101.351C209.428 100.815 209.379 100.272 209.373 99.7286C209.372 98.6931 209.436 97.6586 209.564 96.6311C209.667 95.6402 209.77 94.7007 209.799 93.8125C209.828 92.9868 209.772 92.1603 209.63 91.3463C209.461 90.1543 208.971 89.0305 208.214 88.0947C207.941 87.7493 207.611 87.4538 207.238 87.2212Z" fill="#455A64"/>
<path d="M177.349 95.2292L177.422 95.3026C177.489 95.3466 177.562 95.4127 177.657 95.4861C177.779 95.5871 177.909 95.678 178.046 95.7576C178.227 95.8805 178.416 95.9908 178.612 96.0879C179.865 96.7237 181.258 97.0365 182.663 96.9981C184.762 96.9587 186.803 96.3055 188.535 95.1191C190.621 93.6644 192.387 91.7985 193.725 89.6361C194.459 88.5131 195.083 87.3533 195.75 86.289C196.366 85.2511 197.125 84.3048 198.004 83.4778C198.8 82.7358 199.769 82.2035 200.822 81.9291C201.303 81.8185 201.799 81.7838 202.29 81.8263C202.74 81.869 203.182 81.9727 203.604 82.1346C204.333 82.4221 204.993 82.8598 205.542 83.4191C205.958 83.8498 206.3 84.3457 206.555 84.8871C206.754 85.3587 206.899 85.8511 206.988 86.3551C206.988 86.3551 206.988 86.3551 206.988 86.2523C206.988 86.1496 206.988 86.0762 206.988 85.9587C206.925 85.5834 206.819 85.2165 206.672 84.8651C206.418 84.3248 206.079 83.8291 205.667 83.3971C205.115 82.8136 204.444 82.3556 203.7 82.0539C203.264 81.8822 202.807 81.7687 202.342 81.7162C201.836 81.6718 201.326 81.704 200.83 81.8116C199.734 82.0835 198.725 82.6261 197.894 83.3897C196.993 84.224 196.217 85.183 195.589 86.2377C194.914 87.3093 194.297 88.4397 193.556 89.5847C192.225 91.7215 190.477 93.5687 188.418 95.0163C186.728 96.1835 184.738 96.8408 182.685 96.91C181.302 96.9571 179.928 96.6727 178.678 96.0806C178.219 95.8217 177.776 95.5374 177.349 95.2292Z" fill="#455A64"/>
<path d="M176.666 91.016C176.764 91.1144 176.875 91.1984 176.997 91.2656C177.312 91.4777 177.643 91.6643 177.988 91.8234C178.495 92.0678 179.023 92.2667 179.566 92.4179C180.899 92.7933 182.294 92.8981 183.669 92.7262C184.229 92.6588 184.782 92.5409 185.32 92.3739C185.685 92.2683 186.041 92.1333 186.385 91.9702C186.515 91.9206 186.639 91.854 186.752 91.772C186.752 91.772 186.194 91.9775 185.284 92.2198C184.087 92.5327 182.847 92.6468 181.614 92.5574C180.937 92.5005 180.267 92.3876 179.61 92.2198C179.075 92.0818 178.552 91.9001 178.046 91.6766C177.18 91.2949 176.688 90.972 176.666 91.016Z" fill="#455A64"/>
<path d="M193.497 121.705C193.585 121.47 195.09 122.152 196.741 121.345C198.393 120.537 198.943 118.864 199.164 118.952C199.384 119.04 199.296 119.436 199.009 120.119C198.623 121.005 197.937 121.728 197.072 122.16C196.239 122.574 195.278 122.648 194.393 122.365C193.776 122.138 193.446 121.8 193.497 121.705Z" fill="#263238"/>
<path d="M180.322 261.392C180.322 260.93 185.46 227.782 187.398 223.554C188.961 220.207 201.483 217.594 214.901 212.177C229.346 206.349 246.088 205.946 246.088 205.946L224.89 254.874L180.322 261.392Z" fill="#2C698D"/>
<path d="M187.831 191.097L175.595 192.007V203.707L189.423 205.359L187.831 191.097Z" fill="#FFBF9D"/>
<path d="M226.622 145.244C232.663 147.725 238.264 153.083 237.897 160.027C237.354 170.303 234.961 192.403 234.381 198.092C233.647 205.52 231.137 211.774 220.207 212.185C209.278 212.596 193.196 209.939 193.196 209.939C193.196 209.939 187.405 212.875 185.805 209.652C185.386 208.794 182.509 191.493 182.509 191.493C182.509 191.258 183.926 189.614 185.952 188.601C187.062 188.053 188.34 187.95 189.524 188.315C190.707 188.679 191.706 189.483 192.315 190.561L213.601 189.864L217.822 169.826" fill="#455A64"/>
<path d="M217.844 169.826C217.833 169.941 217.816 170.057 217.792 170.171C217.741 170.413 217.675 170.75 217.594 171.191C217.411 172.094 217.139 173.393 216.794 175.125C216.06 178.575 215.047 183.588 213.741 189.893V189.981H213.645L198.672 190.495L194.393 190.642L193.292 190.679H192.741H192.308C192.308 190.679 192.036 190.524 192.161 190.59L192.088 190.48C191.713 189.852 191.191 189.323 190.568 188.939C189.931 188.538 189.206 188.299 188.455 188.241C187.704 188.184 186.951 188.31 186.26 188.609C185.547 188.934 184.879 189.348 184.271 189.842C183.957 190.086 183.658 190.348 183.375 190.627C183.236 190.767 183.096 190.913 182.972 191.06C182.847 191.207 182.847 191.214 182.788 191.288C182.729 191.361 182.671 191.493 182.678 191.457C183.353 195.479 184.073 199.707 184.88 204.081C185.085 205.175 185.291 206.283 185.496 207.392C185.607 207.942 185.717 208.5 185.849 209.051C185.885 209.314 185.983 209.566 186.135 209.785C186.202 209.898 186.279 210.006 186.363 210.107L186.656 210.379C187.128 210.669 187.653 210.859 188.201 210.94C188.748 211.021 189.307 210.99 189.842 210.849C190.98 210.639 192.084 210.274 193.123 209.763H193.181H193.24C197.571 210.445 202.144 211.025 206.812 211.465C210.034 211.759 213.234 211.972 216.391 212.031C219.547 212.089 222.674 212.031 225.58 211.157C227.01 210.719 228.346 210.019 229.522 209.095C230.666 208.179 231.6 207.027 232.26 205.718C233.446 203.112 234.129 200.306 234.271 197.446C235.438 186.26 236.473 176.16 237.207 167.712C237.39 165.598 237.544 163.579 237.669 161.671C237.735 160.709 237.794 159.784 237.779 158.896C237.779 158.449 237.691 158.008 237.655 157.582C237.618 157.157 237.486 156.738 237.398 156.327C236.994 154.818 236.323 153.393 235.416 152.121C234.655 151.052 233.782 150.068 232.81 149.185C231.446 147.975 229.94 146.935 228.325 146.088C227.775 145.787 227.342 145.596 227.048 145.464L226.615 145.251C226.615 145.251 226.769 145.303 227.063 145.427C227.357 145.552 227.797 145.736 228.362 146.022C230 146.844 231.529 147.867 232.913 149.068C233.899 149.951 234.789 150.935 235.57 152.004C236.495 153.291 237.184 154.733 237.603 156.261C237.691 156.68 237.794 157.098 237.875 157.531C237.955 157.964 237.985 158.412 238.007 158.867C238.007 159.784 238.007 160.717 237.911 161.671C237.794 163.579 237.647 165.605 237.478 167.719C236.788 176.204 235.761 186.282 234.616 197.468C234.469 200.374 233.772 203.226 232.561 205.872C231.877 207.226 230.913 208.419 229.735 209.374C228.52 210.325 227.142 211.046 225.668 211.502C222.732 212.412 219.51 212.434 216.361 212.398C213.212 212.361 209.983 212.126 206.753 211.832C202.078 211.392 197.505 210.812 193.159 210.122H193.277C192.202 210.646 191.061 211.023 189.886 211.245C189.301 211.385 188.694 211.405 188.101 211.304C187.508 211.203 186.942 210.983 186.436 210.658L186.098 210.342C185.998 210.227 185.909 210.101 185.834 209.968C185.665 209.714 185.552 209.426 185.504 209.124C185.364 208.559 185.262 208.001 185.152 207.443C184.946 206.335 184.74 205.241 184.535 204.133C183.75 199.729 183.067 195.523 182.333 191.501C182.359 191.363 182.42 191.234 182.509 191.126C182.575 191.046 182.641 190.957 182.707 190.884C182.773 190.811 182.986 190.576 183.133 190.429C183.424 190.138 183.733 189.866 184.058 189.614C184.694 189.108 185.389 188.682 186.128 188.344C187.235 187.875 188.474 187.82 189.618 188.19C190.762 188.559 191.735 189.328 192.359 190.356L192.44 190.48C192.565 190.554 192.264 190.385 192.301 190.407H192.697H193.255L194.356 190.37L198.635 190.238L213.609 189.776L213.491 189.871C214.842 183.581 215.913 178.575 216.655 175.132L217.514 171.205C217.616 170.765 217.69 170.435 217.741 170.193L217.844 169.826Z" fill="#263238"/>
<path d="M225.338 146.917C225.382 146.969 224.604 147.725 223.503 149.119C222.109 150.948 220.957 152.949 220.075 155.072C219.197 157.195 218.566 159.411 218.196 161.678C217.903 163.418 217.844 164.519 217.77 164.511C217.74 164.255 217.74 163.997 217.77 163.741C217.77 163.242 217.837 162.522 217.939 161.634C218.24 159.324 218.845 157.063 219.738 154.911C220.233 153.728 220.817 152.585 221.485 151.49C222.033 150.599 222.641 149.745 223.305 148.936C223.763 148.394 224.254 147.879 224.773 147.395C225.103 147.072 225.338 146.895 225.338 146.917Z" fill="#263238"/>
<path d="M222.806 198.826C222.74 198.826 222.578 198.092 222.072 196.984C220.763 194.071 218.361 191.79 215.385 190.634C214.247 190.201 213.491 190.077 213.506 190.011C213.521 189.945 213.697 190.011 214.042 190.011C214.529 190.077 215.008 190.19 215.473 190.348C216.169 190.574 216.838 190.874 217.47 191.244C218.243 191.696 218.964 192.233 219.62 192.844C220.263 193.467 220.837 194.159 221.33 194.906C221.728 195.518 222.06 196.17 222.321 196.851C222.505 197.306 222.643 197.778 222.732 198.261C222.813 198.635 222.835 198.819 222.806 198.826Z" fill="#263238"/>
<path d="M193.365 209.329C193.306 209.329 193.6 208.28 193.842 206.562C194.148 204.332 194.273 202.082 194.216 199.832C194.183 198.604 194.085 197.379 193.923 196.162C193.78 195.17 193.571 194.189 193.299 193.226C192.822 191.567 192.249 190.649 192.315 190.612C192.481 190.804 192.622 191.016 192.734 191.244C192.888 191.499 193.02 191.767 193.13 192.044C193.299 192.4 193.441 192.768 193.556 193.145C193.88 194.119 194.126 195.118 194.29 196.132C194.477 197.372 194.588 198.622 194.62 199.876C194.687 202.147 194.522 204.42 194.128 206.658C194.01 207.336 193.853 208.008 193.659 208.669C193.586 208.899 193.487 209.121 193.365 209.329Z" fill="#263238"/>
<path d="M110.284 165.201C110.284 165.201 111.113 163.212 112.764 162.801C112.764 162.801 120.956 165.003 123.349 167.616C123.349 167.616 123.826 165.752 128.222 162.008C131.49 159.218 135.581 157.573 139.871 157.326L144.224 160.063L126.776 172.284L121.587 174.097L110.284 165.201Z" fill="#FAFAFA"/>
<path d="M110.284 165.201C110.361 165.244 110.435 165.293 110.504 165.348L111.113 165.811L113.403 167.565L121.675 173.958H121.536L126.718 172.13L143.915 160.012L144.114 159.873V160.196C142.646 159.263 141.178 158.346 139.761 157.458H139.864C136.259 157.67 132.783 158.877 129.823 160.944C128.512 161.893 127.285 162.952 126.153 164.108C125.61 164.642 125.101 165.208 124.626 165.803C124.172 166.344 123.799 166.947 123.518 167.594L123.429 167.829L123.261 167.66C122.399 166.837 121.407 166.162 120.325 165.664C119.37 165.186 118.389 164.759 117.389 164.387C115.554 163.653 113.968 163.183 112.706 162.816H112.742C111.915 163.101 111.213 163.667 110.761 164.416C110.631 164.603 110.511 164.797 110.401 164.996C110.32 165.128 110.291 165.194 110.284 165.194C110.297 165.116 110.325 165.042 110.364 164.974C110.462 164.767 110.572 164.566 110.695 164.372C111.156 163.593 111.883 163.006 112.742 162.72H112.786C114.056 163.058 115.656 163.535 117.506 164.225C118.506 164.59 119.486 165.006 120.442 165.473C121.55 165.984 122.569 166.671 123.459 167.506L123.202 167.572C123.485 166.878 123.874 166.232 124.354 165.656C124.831 165.052 125.344 164.476 125.888 163.932C127.043 162.768 128.293 161.702 129.624 160.746C132.648 158.617 136.208 157.376 139.9 157.164H139.952H140.003L144.356 159.895L144.598 160.049L144.363 160.218L144.165 160.357L126.865 172.417L121.668 174.208H121.594L121.528 174.156L113.293 167.55L111.091 165.752L110.518 165.282C110.437 165.265 110.358 165.238 110.284 165.201Z" fill="#263238"/>
<path d="M107.406 164.864L107.898 163.873L120.185 170.714C120.185 170.714 124.222 170.464 124.303 167.778C124.303 167.778 144.422 159.366 144.914 159.616C145.405 159.865 177.628 186.627 177.628 186.627L148.525 192.829L135.056 186.869L107.406 164.864Z" fill="#2C698D"/>
<path d="M144.818 191.192C144.752 191.273 139.181 186.752 132.34 181.1C125.499 175.448 120.082 170.824 120.148 170.714C120.215 170.604 125.786 175.118 132.59 180.806C139.394 186.495 144.884 191.104 144.818 191.192Z" fill="#263238"/>
<path d="M152.672 191.816C152.599 191.897 146.257 186.605 138.506 179.999C130.755 173.393 124.56 167.969 124.56 167.888C124.56 167.807 130.968 173.099 138.726 179.713C146.484 186.326 152.709 191.735 152.672 191.816Z" fill="#263238"/>
<path d="M124.472 176.204C124.391 176.204 121.646 175.94 120.993 177.136C120.339 178.333 120.259 178.986 120.523 179.698C120.97 180.487 121.502 181.225 122.108 181.9L122.578 182.766C122.087 183.772 121.933 184.91 122.138 186.01C122.472 186.957 123.093 187.775 123.914 188.352C123.914 188.352 124.134 191.926 126.307 191.956C126.464 192.515 126.798 193.01 127.258 193.365C127.718 193.721 128.28 193.919 128.861 193.93C130.858 193.879 131.863 194.393 134.08 193.248C136.296 192.102 138.865 190.957 139.431 189.812C139.996 188.667 138.021 188.543 138.021 188.543C138.021 188.543 139.093 185.607 135.636 185.988C135.636 185.988 136.025 182.942 133.808 182.575C131.573 182.365 129.325 182.333 127.085 182.48L125.308 180.336C125.308 180.336 126.6 179.969 126.674 178.824C126.747 177.679 125.514 176.241 124.472 176.204Z" fill="#FFBF9D"/>
<path d="M169.693 187.838C169.473 187.911 166.809 189.1 165.033 188.873C163.256 188.645 149.486 181.107 147.49 180.513C145.493 179.918 142.088 180.513 144.554 183.104C147.02 185.695 154.551 189.915 154.698 190.135C154.883 190.6 155.033 191.079 155.146 191.567L147.446 188.631C147.446 188.631 141.816 185.819 140.928 187.522C140.04 189.225 141.376 190.187 142.778 190.627C144.18 191.068 145.714 191.545 145.714 191.545C145.714 191.545 147.343 194.554 148.965 195.736C150.587 196.918 158.001 201.659 159.241 202.18C160.482 202.701 175.676 203.883 175.969 203.648C176.263 203.413 175.969 192.323 175.969 192.323L170.64 187.515L169.693 187.838Z" fill="#FFBF9D"/>
</svg>
