<svg width="44" height="44" viewBox="0 0 44 44" fill="none" xmlns="http://www.w3.org/2000/svg">
<path d="M26.7143 25.1429C27.9646 25.1429 29.1637 25.6395 30.0478 26.5236C30.9319 27.4077 31.4286 28.6068 31.4286 29.8571V31.4286C31.4286 37.6231 25.5829 44 15.7143 44C5.84571 44 0 37.6231 0 31.4286V29.8571C0 28.6068 0.496682 27.4077 1.38078 26.5236C2.26488 25.6395 3.46398 25.1429 4.71429 25.1429H26.7143ZM37.7143 18.8571C38.3394 18.8571 38.939 19.1055 39.381 19.5475C39.8231 19.9896 40.0714 20.5891 40.0714 21.2143C40.0714 21.8394 39.8231 22.439 39.381 22.881C38.939 23.3231 38.3394 23.5714 37.7143 23.5714C37.0891 23.5714 36.4896 23.3231 36.0475 22.881C35.6055 22.439 35.3571 21.8394 35.3571 21.2143C35.3571 20.5891 35.6055 19.9896 36.0475 19.5475C36.4896 19.1055 37.0891 18.8571 37.7143 18.8571ZM15.7143 4.71429C18.0065 4.71429 20.2049 5.62487 21.8257 7.24572C23.4466 8.86657 24.3571 11.0649 24.3571 13.3571C24.3571 15.6494 23.4466 17.8477 21.8257 19.4686C20.2049 21.0894 18.0065 22 15.7143 22C13.4221 22 11.2237 21.0894 9.60286 19.4686C7.98201 17.8477 7.07143 15.6494 7.07143 13.3571C7.07143 11.0649 7.98201 8.86657 9.60286 7.24572C11.2237 5.62487 13.4221 4.71429 15.7143 4.71429ZM37.7143 0C39.3814 0 40.9802 0.662243 42.159 1.84104C43.3378 3.01984 44 4.61864 44 6.28571C44 8.58 43.3337 9.86857 41.6303 11.6537L40.8006 12.5023C39.6157 13.7374 39.2857 14.4037 39.2857 15.7143C39.2857 16.1311 39.1202 16.5308 38.8255 16.8255C38.5308 17.1202 38.1311 17.2857 37.7143 17.2857C37.2975 17.2857 36.8978 17.1202 36.6031 16.8255C36.3084 16.5308 36.1429 16.1311 36.1429 15.7143C36.1429 13.42 36.8091 12.1314 38.5126 10.3463L39.3423 9.49771C40.5271 8.26571 40.8571 7.59943 40.8571 6.28571C40.8571 5.45218 40.526 4.65278 39.9366 4.06338C39.3472 3.47398 38.5478 3.14286 37.7143 3.14286C36.8807 3.14286 36.0814 3.47398 35.492 4.06338C34.9025 4.65278 34.5714 5.45218 34.5714 6.28571C34.5714 6.70248 34.4059 7.10218 34.1112 7.39688C33.8165 7.69158 33.4168 7.85714 33 7.85714C32.5832 7.85714 32.1835 7.69158 31.8888 7.39688C31.5941 7.10218 31.4286 6.70248 31.4286 6.28571C31.4286 4.61864 32.0908 3.01984 33.2696 1.84104C34.4484 0.662243 36.0472 0 37.7143 0Z" fill="#2C698D"/>
</svg>
