<svg width="13" height="8" viewBox="0 0 13 8" fill="none" xmlns="http://www.w3.org/2000/svg">
<path d="M11.5 3.375H1.5C1.15625 3.375 0.875 3.65625 0.875 4C0.875 4.34375 1.15625 4.625 1.5 4.625H11.5C11.8438 4.625 12.125 4.34375 12.125 4C12.125 3.65625 11.8438 3.375 11.5 3.375ZM1.5 7.75H7.75C8.09375 7.75 8.375 7.46875 8.375 7.125C8.375 6.78125 8.09375 6.5 7.75 6.5H1.5C1.15625 6.5 0.875 6.78125 0.875 7.125C0.875 7.46875 1.15625 7.75 1.5 7.75ZM11.5 0.25H1.5C1.15625 0.25 0.875 0.53125 0.875 0.875V0.88125C0.875 1.225 1.15625 1.50625 1.5 1.50625H11.5C11.8438 1.50625 12.125 1.225 12.125 0.88125V0.875C12.125 0.53125 11.8438 0.25 11.5 0.25Z" fill="#919191"/>
</svg>
